<svg width="40" height="40" viewBox="0 0 40 40" fill="none" xmlns="http://www.w3.org/2000/svg">
<g clip-path="url(#clip0_2029_181)">
<path d="M7.79255 33.9461V36.0048V38.3424V39.9157L9.40919 37.8727C9.56728 37.6753 9.85515 37.6438 10.0489 37.8041C10.0772 37.8254 10.101 37.8486 10.1211 37.8755L11.9552 40V38.3424V36.0048V33.9461H7.79255ZM6.87868 36.4699H4.34453C3.03861 36.4699 2.20516 35.6824 1.83962 34.6734C1.70254 34.2954 1.63491 33.8877 1.63491 33.4837C1.63491 33.0788 1.70254 32.6693 1.83962 32.2913C2.20516 31.2851 3.03861 30.4975 4.34453 30.4975H30.7809H32.7887V29.0874H31.5814H19.851H9.5417H3.91958C2.84944 29.0874 1.87343 29.5757 1.1661 30.3613C0.445967 31.1628 0 32.2654 0 33.4837C0 34.7021 0.445967 35.8056 1.1661 36.6043C1.87343 37.3918 2.85035 37.881 3.91958 37.881H6.87777V36.4699H6.87868ZM12.87 35.5425H30.3221V31.4241H4.34453C3.48732 31.4241 2.93809 31.9439 2.69682 32.611C2.59813 32.8843 2.54878 33.1808 2.54878 33.4828C2.54878 33.7821 2.59813 34.0814 2.69682 34.3547C2.93809 35.0218 3.48732 35.5416 4.34453 35.5416H6.87777V33.9452H5.84144C5.58739 33.9452 5.38268 33.7376 5.38268 33.4828C5.38268 33.228 5.58739 33.0205 5.84144 33.0205H7.33653H12.414H13.9091C14.1604 33.0205 14.3651 33.228 14.3651 33.4828C14.3651 33.7376 14.1604 33.9452 13.9091 33.9452H12.87V35.5425ZM12.87 37.8801H32.7887V36.4699H30.7809H12.87V37.8801ZM11.4891 14.5159C11.4371 14.2824 11.4115 14.0434 11.4115 13.796C11.4115 13.5486 11.4371 13.3077 11.4891 13.0761H4.94037C4.60133 13.0761 4.38565 13.2549 4.29518 13.4828C4.25862 13.5801 4.24035 13.6848 4.24035 13.7951C4.24035 13.9053 4.25862 14.01 4.29518 14.1073C4.38565 14.3361 4.60041 14.514 4.94037 14.514H11.4891V14.5159ZM17.9036 13.077C17.9529 13.3077 17.9785 13.5495 17.9785 13.7969C17.9785 14.0443 17.9529 14.2824 17.9036 14.5168H24.6516C24.9906 14.5168 25.2036 14.338 25.294 14.1101C25.3333 14.0128 25.3507 13.9081 25.3507 13.7978C25.3507 13.6876 25.3324 13.5829 25.294 13.4856C25.2036 13.2567 24.9906 13.0788 24.6516 13.0788H17.9036V13.077ZM14.6959 10.466C14.939 10.466 15.1748 10.4948 15.4032 10.5448V9.15779C15.4032 8.96044 15.3256 8.77976 15.1958 8.65098C15.1547 8.60928 15.1099 8.57222 15.0615 8.5435L15.0587 8.54072C14.9527 8.47494 14.8284 8.43788 14.6959 8.43788C14.5013 8.43788 14.3231 8.51941 14.196 8.65098C14.0663 8.77976 13.9858 8.96044 13.9858 9.15779V10.5448C14.2143 10.4948 14.4528 10.466 14.6959 10.466ZM13.9867 17.0481V25.0561H15.4042V17.0481C15.1766 17.0981 14.9408 17.1241 14.6968 17.1241C14.4528 17.1241 14.2143 17.0972 13.9867 17.0481ZM10.3057 19.369H4.42038V21.0868C4.42038 21.9142 5.1533 22.4609 6.0891 22.7129C6.48846 22.8176 6.92621 22.8732 7.36395 22.8732C7.80443 22.8732 8.24218 22.8176 8.63879 22.7129C9.57642 22.4609 10.3075 21.9142 10.3075 21.0868V19.369H10.3057ZM24.9705 19.369H19.0852V21.0868C19.0852 21.9142 19.8154 22.4609 20.7539 22.7129C21.1533 22.8176 21.5883 22.8732 22.0288 22.8732C22.4693 22.8732 22.9043 22.8176 23.3036 22.7129C24.2413 22.4609 24.9724 21.9142 24.9724 21.0868V19.369H24.9705ZM24.0658 18.4425L22.0352 15.7398L19.9936 18.4425H24.0658ZM16.318 25.0551H18.3203C18.8668 25.0551 19.3639 25.284 19.724 25.649C20.0841 26.0141 20.3071 26.5153 20.3071 27.0722V28.1599H31.5805H33.2438H40V0H15.7533V7.91068C15.7843 7.93941 15.8127 7.96627 15.841 7.995C16.1362 8.29426 16.318 8.70379 16.318 9.15871V10.9024C16.5748 11.0498 16.8106 11.2332 17.0171 11.4435C17.2246 11.6538 17.4028 11.8901 17.5508 12.1505H24.6516C25.4238 12.1505 25.9209 12.5869 26.1412 13.1409C26.2244 13.3512 26.2655 13.5773 26.2655 13.7978C26.2655 14.0183 26.2244 14.2444 26.1412 14.452C25.9209 15.0088 25.4238 15.4424 24.6516 15.4424H22.9573L25.2109 18.4444H25.4256C25.6797 18.4444 25.8844 18.6519 25.8844 18.9067V21.0896C25.8844 22.4182 24.8536 23.254 23.5348 23.6079C23.056 23.7367 22.5396 23.7997 22.027 23.7997C21.5143 23.7997 20.9989 23.7367 20.5191 23.6079C19.2004 23.253 18.1695 22.4182 18.1695 21.0896V18.9067C18.1695 18.6519 18.3742 18.4444 18.6283 18.4444H18.843L21.1122 15.4424H17.5499C17.4019 15.7028 17.2237 15.9418 17.0162 16.1512C16.8088 16.3615 16.573 16.545 16.3171 16.6923V25.0551H16.318ZM19.3959 28.1599V27.0722C19.3959 26.7729 19.2744 26.4996 19.0797 26.3022C18.8833 26.1049 18.6164 25.9817 18.3203 25.9817H11.0697C10.7772 25.9817 10.5077 26.1049 10.313 26.3022C10.1183 26.4996 9.9968 26.772 9.9968 27.0722V28.1599H19.3959ZM20.8051 2.40341C20.5538 2.40341 20.3491 2.19587 20.3491 1.94107C20.3491 1.6835 20.5538 1.47596 20.8051 1.47596H24.5191C24.7731 1.47596 24.9778 1.6835 24.9778 1.94107C24.9778 2.19587 24.7731 2.40341 24.5191 2.40341H23.1209V6.5422C23.1209 6.797 22.9162 7.00454 22.6621 7.00454C22.4108 7.00454 22.2061 6.797 22.2061 6.5422V2.40341H20.8051ZM27.056 3.06773L26.3925 4.56222H27.7185L27.056 3.06773ZM25.4311 6.72844C25.3297 6.96192 25.061 7.06754 24.8298 6.96192C24.6022 6.85908 24.4981 6.58668 24.5995 6.35227L25.2575 4.87075C25.2648 4.84666 25.2758 4.8235 25.2886 4.79941L26.6383 1.75021C26.7416 1.51672 27.0112 1.41388 27.2415 1.51672C27.3475 1.56676 27.4252 1.65107 27.469 1.75021L28.8161 4.78644C28.8344 4.81794 28.8499 4.85222 28.8599 4.8865L29.5097 6.35227C29.6111 6.58575 29.507 6.85908 29.2794 6.96192C29.0491 7.06662 28.7795 6.96192 28.6763 6.72844L28.127 5.48874H25.9822L25.4311 6.72844ZM34.6045 1.63903C34.7681 1.44445 35.0551 1.42407 35.247 1.59177C35.4361 1.75762 35.4572 2.04855 35.2936 2.24312L33.5837 4.24164L35.2936 6.23738C35.4572 6.43195 35.4361 6.72288 35.247 6.8915C35.0551 7.05735 34.7681 7.03604 34.6045 6.84425L32.9806 4.9458L31.3566 6.84425C31.1912 7.03604 30.9034 7.05735 30.7142 6.8915C30.5223 6.7238 30.5022 6.43195 30.6676 6.23738L32.3774 4.24164L30.6676 2.24312C30.5022 2.04855 30.5223 1.75762 30.7142 1.59177C30.9034 1.42407 31.1912 1.44445 31.3566 1.63903L32.9806 3.53562L34.6045 1.63903ZM34.5086 23.2299C34.9719 23.2299 35.4389 23.4087 35.7935 23.7682C36.148 24.1305 36.3272 24.6011 36.3272 25.0737C36.3272 25.5462 36.148 26.0169 35.7935 26.3791C35.4389 26.7386 34.9719 26.9174 34.5086 26.9174C34.0425 26.9174 33.5764 26.7386 33.2209 26.3791C32.8663 26.0169 32.6872 25.5462 32.6872 25.0737C32.6872 24.6011 32.8663 24.1305 33.2209 23.7682C33.5755 23.4087 34.0425 23.2299 34.5086 23.2299ZM35.1483 24.4251C34.9719 24.2463 34.7389 24.1545 34.5086 24.1545C34.2755 24.1545 34.0452 24.2463 33.8661 24.4251C33.6897 24.6039 33.602 24.8374 33.602 25.0737C33.602 25.3071 33.6897 25.5434 33.8661 25.7222C34.0452 25.901 34.2755 25.9928 34.5086 25.9928C34.7389 25.9928 34.9719 25.901 35.1483 25.7222C35.3246 25.5434 35.4124 25.3071 35.4124 25.0737C35.4124 24.8374 35.3246 24.6039 35.1483 24.4251ZM31.597 19.5136C31.9516 19.8731 32.1307 20.3465 32.1307 20.819C32.1307 21.2888 31.9516 21.7623 31.597 22.1217C31.2424 22.4812 30.7754 22.6628 30.3093 22.6628C29.846 22.6628 29.379 22.4812 29.0244 22.1217C28.6671 21.7623 28.4907 21.2888 28.4907 20.819C28.4907 20.3465 28.6671 19.874 29.0244 19.5136C29.379 19.1541 29.846 18.9725 30.3093 18.9725C30.7754 18.9725 31.2415 19.1541 31.597 19.5136ZM30.949 20.1677C30.7727 19.9889 30.5424 19.8999 30.3093 19.8999C30.079 19.8999 29.846 19.9889 29.6696 20.1677C29.4933 20.3493 29.4055 20.5828 29.4055 20.819C29.4055 21.0525 29.4933 21.2888 29.6696 21.4676C29.846 21.6464 30.079 21.7354 30.3093 21.7354C30.5424 21.7354 30.7727 21.6464 30.949 21.4676C31.1282 21.2888 31.2159 21.0525 31.2159 20.819C31.2159 20.5828 31.1282 20.3493 30.949 20.1677ZM34.5451 20.1232C34.7242 19.9416 35.0139 19.9416 35.1931 20.1232C35.3722 20.3048 35.3722 20.5985 35.1931 20.7801L30.271 25.7676C30.0946 25.9492 29.8049 25.9492 29.6258 25.7676C29.4467 25.586 29.4467 25.2951 29.6258 25.1135L34.5451 20.1232ZM28.1535 12.8296C27.9022 12.8296 27.6975 12.6221 27.6975 12.3673C27.6975 12.1125 27.9022 11.9049 28.1535 11.9049H36.5958C36.8499 11.9049 37.0546 12.1125 37.0546 12.3673C37.0546 12.6221 36.8499 12.8296 36.5958 12.8296H28.1535ZM19.1547 9.58306C18.9034 9.58306 18.6987 9.37552 18.6987 9.12073C18.6987 8.86315 18.9034 8.65561 19.1547 8.65561H36.5968C36.8508 8.65561 37.0555 8.86315 37.0555 9.12073C37.0555 9.37552 36.8508 9.58306 36.5968 9.58306H19.1547ZM15.6701 15.9863L15.6728 15.9835H15.6756C15.9342 15.8631 16.17 15.6972 16.3719 15.4952C16.5712 15.2932 16.7347 15.0542 16.8536 14.7883V14.7855L16.8563 14.7827C16.9906 14.4835 17.0637 14.1471 17.0637 13.7951C17.0637 13.443 16.9915 13.1066 16.8563 12.8046L16.8536 12.8018C16.7347 12.5368 16.5712 12.2978 16.3719 12.0949C16.17 11.8929 15.9342 11.7243 15.6756 11.6066H15.6728L15.6701 11.6038C15.3722 11.4676 15.0432 11.3907 14.6959 11.3907C14.3486 11.3907 14.0169 11.4667 13.719 11.6038L13.7162 11.6066C13.4549 11.7252 13.2191 11.8929 13.019 12.0949C12.8188 12.2969 12.6534 12.5359 12.5346 12.8018V12.8046C12.4003 13.1066 12.3244 13.443 12.3244 13.7951C12.3244 14.1471 12.3994 14.4835 12.5346 14.7827V14.7855V14.7883C12.6534 15.0533 12.8197 15.2923 13.019 15.4952C13.2182 15.6972 13.454 15.8631 13.7162 15.9835L13.719 15.9863C14.0169 16.1225 14.3486 16.1994 14.6959 16.1994C15.0432 16.1994 15.3722 16.1234 15.6701 15.9863ZM10.1503 18.563C10.2774 18.7464 10.2463 19.0068 10.0781 19.1457C9.90998 19.2847 9.67146 19.2504 9.5417 19.0698L7.37126 15.9631L5.18711 19.0698C5.05734 19.2514 4.81883 19.2847 4.65067 19.1457C4.48252 19.0068 4.45145 18.7464 4.57848 18.563L7.06511 15.0283C7.08613 14.9995 7.10898 14.9708 7.14005 14.9439C7.3082 14.805 7.54672 14.8411 7.67649 15.0227L10.1503 18.563Z" fill="white"/>
</g>
<defs>
<clipPath id="clip0_2029_181">
<rect width="40" height="40" fill="white"/>
</clipPath>
</defs>
</svg>
