<svg width="40" height="40" viewBox="0 0 40 40" fill="none" xmlns="http://www.w3.org/2000/svg">
<path d="M36.9691 12.5689L37.7184 10.9171L19.2107 1.23926L0.703125 10.9172L1.45242 12.5689H36.9691ZM19.2107 3.87551C21.1179 3.87551 22.664 5.4216 22.664 7.32879C22.664 9.23598 21.1179 10.7821 19.2107 10.7821C17.3035 10.7821 15.7574 9.23598 15.7574 7.32879C15.7574 5.4216 17.3035 3.87551 19.2107 3.87551ZM38.5476 25.556H16.8659C16.4539 25.556 16.1167 25.8932 16.1167 26.3053V38.0115C16.1167 38.4236 16.4539 38.7607 16.8659 38.7607H38.5476C38.9597 38.7607 39.2969 38.4236 39.2969 38.0115V26.3053C39.2969 25.8932 38.9597 25.556 38.5476 25.556ZM22.1082 26.7169C23.0477 26.7169 23.8095 27.4786 23.8095 28.4182C23.8095 29.3578 23.0477 30.1194 22.1082 30.1194C21.1687 30.1194 20.407 29.3577 20.407 28.4182C20.407 27.4786 21.1687 26.7169 22.1082 26.7169ZM18.9796 33.7014C19.1537 32.1318 20.4942 30.9007 22.1082 30.9007C23.7223 30.9007 25.0627 32.1318 25.2368 33.7014C25.2575 33.8876 25.1134 34.0484 24.9261 34.0484H19.2902C19.103 34.0484 18.9589 33.8876 18.9796 33.7014ZM36.4531 36.9448H18.9605C18.6153 36.9448 18.3355 36.665 18.3355 36.3198C18.3355 35.9746 18.6153 35.6948 18.9605 35.6948H36.4531C36.7983 35.6948 37.0781 35.9746 37.0781 36.3198C37.0781 36.665 36.7983 36.9448 36.4531 36.9448ZM36.4531 34.1705H27.5543C27.2091 34.1705 26.9293 33.8907 26.9293 33.5455C26.9293 33.2003 27.2091 32.9205 27.5543 32.9205H36.4531C36.7983 32.9205 37.0781 33.2003 37.0781 33.5455C37.0781 33.8907 36.7983 34.1705 36.4531 34.1705ZM36.4531 31.3963H27.5543C27.2091 31.3963 26.9293 31.1164 26.9293 30.7713C26.9293 30.4261 27.2091 30.1463 27.5543 30.1463H36.4531C36.7983 30.1463 37.0781 30.4261 37.0781 30.7713C37.0781 31.1164 36.7983 31.3963 36.4531 31.3963ZM36.4531 28.622H27.5543C27.2091 28.622 26.9293 28.3421 26.9293 27.997C26.9293 27.6518 27.2091 27.372 27.5543 27.372H36.4531C36.7983 27.372 37.0781 27.6518 37.0781 27.997C37.0781 28.3421 36.7983 28.622 36.4531 28.622ZM28.9148 16.2998H33.1662L33.4906 24.306H28.5905L28.9148 16.2998ZM34.406 15.0498H4.01539L3.47891 13.8189H34.9424L34.406 15.0498ZM1.45242 34.4968H14.8667V36.8349H0.703125L1.45242 34.4968ZM3.64078 32.0675H14.8667V33.2468H3.14953L3.64078 32.0675ZM5.25539 16.2998H9.50672L10.095 30.8175H4.66703L5.25539 16.2998ZM16.8659 24.306C15.7663 24.306 14.8667 25.2057 14.8667 26.3053V30.8175H12.5536L13.1419 16.2998H17.3932L17.7176 24.306H16.8659ZM21.0284 16.2998H25.2797L25.6041 24.306H20.7039L21.0284 16.2998Z" fill="white"/>
<path d="M19.7071 5.83054C19.4083 5.83054 19.1622 5.9098 18.9688 6.06832C18.7753 6.2246 18.6504 6.45233 18.5941 6.75151H20.0744V7.34092H18.539L18.5317 7.45814V7.61554L18.539 7.72605H19.843V8.32217H18.6015C18.7264 8.8647 19.1194 9.13597 19.7805 9.13597C20.1307 9.13597 20.4674 9.07234 20.7906 8.94508V9.80241C20.5066 9.93414 20.1478 10 19.7144 10C19.1145 10 18.6211 9.85153 18.2342 9.55459C17.8473 9.25765 17.6036 8.84684 17.5032 8.32217H17V7.72605H17.4334C17.4236 7.6747 17.4187 7.60549 17.4187 7.51842L17.4261 7.34092H17V6.75151H17.4885C17.5791 6.21121 17.8228 5.78477 18.2195 5.4722C18.6162 5.1574 19.112 5 19.7071 5C20.1674 5 20.5984 5.09154 21 5.27461L20.64 6.05157C20.4711 5.98236 20.3131 5.92878 20.1662 5.89082C20.0193 5.85064 19.8662 5.83054 19.7071 5.83054Z" fill="white"/>
</svg>
