<svg width="40" height="40" viewBox="0 0 40 40" fill="none" xmlns="http://www.w3.org/2000/svg">
<g clip-path="url(#clip0_2029_1241)">
<path fill-rule="evenodd" clip-rule="evenodd" d="M21.3061 27.8852C21.1403 27.8852 20.9814 27.951 20.8642 28.0682C20.7469 28.1854 20.6811 28.3444 20.6811 28.5102C20.6811 28.6759 20.7469 28.8349 20.8642 28.9521C20.9814 29.0693 21.1403 29.1352 21.3061 29.1352H21.9966C22.1623 29.1352 22.3213 29.0693 22.4385 28.9521C22.5557 28.8349 22.6216 28.6759 22.6216 28.5102C22.6216 28.3444 22.5557 28.1854 22.4385 28.0682C22.3213 27.951 22.1623 27.8852 21.9966 27.8852H21.3061ZM18.82 27.8852C18.6542 27.8852 18.4953 27.951 18.3781 28.0682C18.2608 28.1854 18.195 28.3444 18.195 28.5102C18.195 28.6759 18.2608 28.8349 18.3781 28.9521C18.4953 29.0693 18.6542 29.1352 18.82 29.1352H19.5109C19.6766 29.1352 19.8356 29.0693 19.9528 28.9521C20.07 28.8349 20.1359 28.6759 20.1359 28.5102C20.1359 28.3444 20.07 28.1854 19.9528 28.0682C19.8356 27.951 19.6766 27.8852 19.5109 27.8852H18.82ZM16.335 27.8852C16.1692 27.8852 16.0103 27.951 15.8931 28.0682C15.7758 28.1854 15.71 28.3444 15.71 28.5102C15.71 28.6759 15.7758 28.8349 15.8931 28.9521C16.0103 29.0693 16.1692 29.1352 16.335 29.1352H17.0255C17.1913 29.1352 17.3503 29.0693 17.4675 28.9521C17.5847 28.8349 17.6505 28.6759 17.6505 28.5102C17.6505 28.3444 17.5847 28.1854 17.4675 28.0682C17.3503 27.951 17.1913 27.8852 17.0255 27.8852H16.335ZM14.5398 27.8852H13.8497C13.6839 27.8852 13.525 27.951 13.4077 28.0682C13.2905 28.1854 13.2247 28.3444 13.2247 28.5102C13.2247 28.6759 13.2905 28.8349 13.4077 28.9521C13.525 29.0693 13.6839 29.1352 13.8497 29.1352H14.5398C14.7056 29.1352 14.8646 29.0693 14.9818 28.9521C15.099 28.8349 15.1648 28.6759 15.1648 28.5102C15.1648 28.3444 15.099 28.1854 14.9818 28.0682C14.8646 27.951 14.7056 27.8852 14.5398 27.8852ZM13.7163 24.8539C13.7755 24.7961 13.8225 24.727 13.8548 24.6509C13.8871 24.5747 13.9039 24.4929 13.9043 24.4102C13.9048 24.3275 13.8888 24.2455 13.8573 24.169C13.8259 24.0925 13.7796 24.023 13.7211 23.9645C13.6625 23.906 13.593 23.8597 13.5165 23.8283C13.44 23.7969 13.358 23.7809 13.2753 23.7814C13.1926 23.7819 13.1108 23.7988 13.0346 23.8311C12.9585 23.8634 12.8895 23.9105 12.8316 23.9696L12.3438 24.458C12.2265 24.5753 12.1606 24.7344 12.1606 24.9002C12.1606 25.0661 12.2265 25.2251 12.3438 25.3424C12.4611 25.4596 12.6201 25.5255 12.786 25.5255C12.9518 25.5255 13.1109 25.4596 13.2281 25.3423L13.7163 24.8539ZM14.9849 23.5841C14.9275 23.6446 14.8585 23.693 14.782 23.7264C14.7056 23.7598 14.6232 23.7775 14.5398 23.7786C14.4564 23.7797 14.3736 23.764 14.2963 23.7326C14.2191 23.7012 14.1489 23.6546 14.0899 23.5956C14.0309 23.5366 13.9843 23.4664 13.9529 23.3891C13.9214 23.3119 13.9058 23.2291 13.9069 23.1457C13.9079 23.0622 13.9257 22.9799 13.9591 22.9034C13.9925 22.827 14.0408 22.758 14.1013 22.7005L14.5896 22.212C14.6473 22.1525 14.7163 22.1052 14.7925 22.0727C14.8687 22.0401 14.9506 22.0231 15.0334 22.0225C15.1163 22.0219 15.1984 22.0378 15.2751 22.0692C15.3517 22.1007 15.4213 22.147 15.4799 22.2056C15.5385 22.2642 15.5848 22.3339 15.6162 22.4105C15.6476 22.4872 15.6635 22.5694 15.6628 22.6522C15.6622 22.735 15.6451 22.8169 15.6126 22.8931C15.58 22.9693 15.5326 23.0382 15.4732 23.0959L14.9849 23.5841ZM20.9023 23.6873C20.9604 23.6294 21.0066 23.5605 21.038 23.4847C21.0695 23.4089 21.0857 23.3276 21.0857 23.2455C21.0857 23.1635 21.0695 23.0822 21.038 23.0064C21.0066 22.9305 20.9604 22.8617 20.9023 22.8037L20.4137 22.3152C20.3559 22.2557 20.287 22.2084 20.2108 22.1759C20.1346 22.1433 20.0527 22.1263 19.9698 22.1257C19.887 22.1251 19.8049 22.141 19.7282 22.1724C19.6516 22.2039 19.5819 22.2503 19.5234 22.3088C19.4648 22.3674 19.4185 22.4371 19.3871 22.5138C19.3557 22.5904 19.3398 22.6726 19.3404 22.7554C19.3411 22.8382 19.3581 22.9201 19.3907 22.9963C19.4233 23.0725 19.4706 23.1414 19.5301 23.1991L20.0186 23.6873C20.1359 23.8044 20.2948 23.8701 20.4604 23.8701C20.6261 23.8701 20.785 23.8044 20.9023 23.6873ZM22.6601 25.4452C22.5428 25.5622 22.3839 25.6279 22.2183 25.6279C22.0526 25.6279 21.8937 25.5622 21.7765 25.4452L21.2883 24.9566C21.171 24.8394 21.1051 24.6804 21.105 24.5146C21.1049 24.3489 21.1707 24.1899 21.2879 24.0726C21.4051 23.9553 21.564 23.8894 21.7298 23.8893C21.8956 23.8892 22.0546 23.955 22.1719 24.0722L22.6601 24.5608C22.7772 24.6781 22.843 24.8372 22.843 25.003C22.843 25.1688 22.7772 25.3278 22.6601 25.4452ZM31.621 30.2191C31.4553 30.2191 31.2963 30.2849 31.1791 30.4021C31.0619 30.5193 30.996 30.6783 30.996 30.8441C30.996 31.0098 31.0619 31.1688 31.1791 31.286C31.2963 31.4032 31.4553 31.4691 31.621 31.4691H35.6179C35.7836 31.4691 35.9426 31.4032 36.0598 31.286C36.177 31.1688 36.2429 31.0098 36.2429 30.8441C36.2429 30.6783 36.177 30.5193 36.0598 30.4021C35.9426 30.2849 35.7836 30.2191 35.6179 30.2191H31.621ZM25.9473 28.3737C25.7067 28.374 25.4759 28.4697 25.3057 28.6399C25.1356 28.8102 25.0399 29.0409 25.0398 29.2816V30.5613C25.0399 30.8021 25.1355 31.033 25.3057 31.2033C25.4758 31.3737 25.7066 31.4696 25.9473 31.47H28.6641C28.905 31.4697 29.1359 31.3739 29.3063 31.2035C29.4766 31.0332 29.5724 30.8022 29.5727 30.5613V29.2816C29.5723 29.0409 29.4764 28.8101 29.306 28.64C29.1357 28.4699 28.9048 28.3743 28.6641 28.3741L25.9473 28.3737ZM37.282 5.69625H32.6124L20.2561 0.133438C20.1756 0.0969823 20.0882 0.078125 19.9998 0.078125C19.9114 0.078125 19.824 0.0969823 19.7435 0.133438L7.38758 5.69625H2.71797C2.01807 5.69697 1.34705 5.97532 0.852144 6.47021C0.357237 6.96511 0.0788695 7.63612 0.078125 8.33601V32.5899C0.0789726 33.2898 0.357365 33.9608 0.852244 34.4557C1.34712 34.9506 2.01808 35.229 2.71797 35.2299H11.6406L9.72812 38.5119C9.64369 38.653 9.59858 38.8141 9.59748 38.9786C9.59638 39.143 9.63933 39.3048 9.72188 39.447C9.80438 39.5908 9.9232 39.7103 10.0664 39.7936C10.2097 39.877 10.3723 39.9212 10.538 39.922H29.4616C29.6274 39.9213 29.7901 39.8771 29.9334 39.7938C30.0768 39.7104 30.1956 39.5908 30.2781 39.447C30.3605 39.3047 30.4035 39.143 30.4025 38.9786C30.4015 38.8142 30.3567 38.6531 30.2726 38.5118L28.3602 35.2298H37.2821C37.982 35.2289 38.6529 34.9505 39.1478 34.4556C39.6426 33.9607 39.921 33.2897 39.9219 32.5898V8.33601C39.9211 7.63612 39.6428 6.96511 39.1479 6.47021C38.653 5.97532 37.9819 5.69697 37.282 5.69625ZM9.58336 6.96562H30.4163V7.39453H9.58336V6.96562ZM30.4163 18.3875V18.7814H9.58336V18.3875H30.4163ZM13.9873 17.1375V8.64437H15.3407V17.138L13.9873 17.1375ZM19.3232 17.1375V8.64437H20.6762V17.138L19.3232 17.1375ZM26.012 17.1375H24.6593V8.64437H26.0123L26.012 17.1375ZM7.42109 32.2913C6.67383 32.2914 5.94335 32.0698 5.32201 31.6547C4.70068 31.2395 4.2164 30.6495 3.93043 29.9591C3.64445 29.2687 3.56963 28.509 3.71541 27.7761C3.86119 27.0432 4.22103 26.37 4.74943 25.8416C5.27782 25.3132 5.95104 24.9534 6.68395 24.8077C7.41685 24.6619 8.17652 24.7367 8.86689 25.0227C9.55726 25.3087 10.1473 25.793 10.5624 26.4143C10.9776 27.0357 11.1991 27.7662 11.1991 28.5134C11.1979 29.5151 10.7995 30.4753 10.0912 31.1836C9.38298 31.8918 8.42271 32.2902 7.42109 32.2913ZM36.5296 31.8868C36.5289 31.9151 36.5173 31.942 36.4973 31.9621C36.4773 31.9821 36.4503 31.9936 36.422 31.9944H24.7282C24.6998 31.9937 24.6728 31.9822 24.6527 31.9622C24.6326 31.9421 24.621 31.9152 24.6202 31.8868V26.9532H36.5296V31.8868ZM38.6719 30.6063H37.7795V25.139C37.779 24.7791 37.6358 24.434 37.3813 24.1795C37.1268 23.925 36.7818 23.7818 36.4219 23.7813H24.7282C24.3682 23.7816 24.023 23.9247 23.7684 24.1792C23.5138 24.4337 23.3705 24.7788 23.37 25.1388V30.6063H11.9905C12.3418 29.8404 12.495 28.9984 12.4359 28.1578C12.3768 27.3172 12.1073 26.5049 11.6523 25.7957C11.1973 25.0864 10.5713 24.5029 9.83185 24.0987C9.09242 23.6946 8.26326 23.4828 7.42059 23.4828C6.57791 23.4828 5.74875 23.6946 5.00932 24.0987C4.26988 24.5029 3.64389 25.0864 3.18887 25.7957C2.73386 26.5049 2.46442 27.3172 2.40531 28.1578C2.34621 28.9984 2.49934 29.8404 2.85063 30.6063H1.32812V8.33601C1.32852 7.96753 1.47507 7.61424 1.73563 7.35368C1.9962 7.09312 2.34948 6.94657 2.71797 6.94617H7.32273C7.37342 6.95921 7.42556 6.96577 7.47789 6.9657H8.33344V8.01953C8.33344 8.18529 8.39929 8.34426 8.5165 8.46147C8.63371 8.57868 8.79268 8.64453 8.95844 8.64453H10.0045V17.138H8.95844C8.79268 17.138 8.63371 17.2038 8.5165 17.321C8.39929 17.4382 8.33344 17.5972 8.33344 17.763V18.7818H7.47789C7.31213 18.7818 7.15316 18.8476 7.03595 18.9649C6.91874 19.0821 6.85289 19.241 6.85289 19.4068V20.9887C6.85289 21.1544 6.91874 21.3134 7.03595 21.4306C7.15316 21.5478 7.31213 21.6137 7.47789 21.6137H32.5218C32.6876 21.6137 32.8465 21.5478 32.9637 21.4306C33.0809 21.3134 33.1468 21.1544 33.1468 20.9887V19.4063C33.1468 19.2406 33.0809 19.0816 32.9637 18.9644C32.8465 18.8472 32.6876 18.7813 32.5218 18.7813H31.6666V17.7629C31.6666 17.5971 31.6007 17.4382 31.4835 17.3209C31.3663 17.2037 31.2073 17.1379 31.0416 17.1379H29.9955V8.64437H31.0416C31.2073 8.64437 31.3663 8.57853 31.4835 8.46132C31.6007 8.34411 31.6666 8.18513 31.6666 8.01937V6.96562H32.5218C32.5742 6.96569 32.6265 6.95913 32.6773 6.94609H37.282C37.6505 6.94649 38.0038 7.09305 38.2644 7.35363C38.525 7.61421 38.6715 7.96751 38.6719 8.33601V30.6063Z" fill="white"/>
<path d="M7.71639 26.8306C7.41764 26.8306 7.17155 26.9099 6.9781 27.0684C6.78465 27.2247 6.65976 27.4524 6.60344 27.7516H8.0837V28.341H6.54834L6.541 28.4582V28.6156L6.54834 28.7261H7.85229V29.3223H6.61079C6.73567 29.8648 7.12869 30.1361 7.78985 30.1361C8.14002 30.1361 8.47672 30.0724 8.79995 29.9452V30.8025C8.5159 30.9342 8.15716 31.0001 7.72373 31.0001C7.1238 31.0001 6.63038 30.8516 6.24348 30.5547C5.85658 30.2577 5.61293 29.8469 5.51253 29.3223H5.00932V28.7261H5.44274C5.43295 28.6748 5.42805 28.6056 5.42805 28.5185L5.4354 28.341H5.00932V27.7516H5.49784C5.58844 27.2113 5.83209 26.7849 6.22878 26.4723C6.62548 26.1575 7.12135 26.0001 7.71639 26.0001C8.17675 26.0001 8.60773 26.0916 9.00932 26.2747L8.64935 27.0517C8.48039 26.9825 8.32245 26.9289 8.17552 26.8909C8.0286 26.8507 7.87556 26.8306 7.71639 26.8306Z" fill="white"/>
</g>
<defs>
<clipPath id="clip0_2029_1241">
<rect width="40" height="40" fill="white"/>
</clipPath>
</defs>
</svg>
