<svg width="40" height="40" viewBox="0 0 40 40" fill="none" xmlns="http://www.w3.org/2000/svg">
<path d="M13.622 21.3496V30.668C13.622 31.0088 13.346 31.2848 13.0052 31.2848H3.228C2.8872 31.2848 2.6112 31.0088 2.6112 30.668V21.3496C2.6112 21.0088 2.8872 20.7328 3.228 20.7328H13.0052C13.346 20.7328 13.622 21.0088 13.622 21.3496ZM21.9632 20.7328H15.6892C15.3484 20.7328 15.0724 21.0088 15.0724 21.3496C15.0724 21.6904 15.3484 21.9664 15.6892 21.9664H21.9636C22.3044 21.9664 22.5804 21.6904 22.5804 21.3496C22.5804 21.0088 22.304 20.7328 21.9632 20.7328ZM21.9632 23.526H15.6892C15.3484 23.526 15.0724 23.802 15.0724 24.1428C15.0724 24.4836 15.3484 24.7596 15.6892 24.7596H21.9636C22.3044 24.7596 22.5804 24.4836 22.5804 24.1428C22.58 23.802 22.304 23.526 21.9632 23.526ZM3.228 19.5972H6.0628H8.286H11.1208H13.346H16.1808H18.404H21.2388H23.464H26.2988H29.1336C29.4744 19.5972 29.7504 19.3212 29.7504 18.9804C29.7504 18.6396 29.4744 18.3636 29.1336 18.3636H26.916V16.4384C26.916 16.0976 26.64 15.8216 26.2992 15.8216H23.4644C23.1236 15.8216 22.8476 16.0976 22.8476 16.4384V18.3636H21.856V10.8956C21.856 10.5548 21.58 10.2788 21.2392 10.2788H18.4044C18.0636 10.2788 17.7876 10.5548 17.7876 10.8956V18.3632H16.7984V16.1912C16.7984 15.8504 16.5224 15.5744 16.1816 15.5744H13.3468C13.006 15.5744 12.73 15.8504 12.73 16.1912V18.3632H11.7384V10.5156C11.7384 10.1748 11.4624 9.89882 11.1216 9.89882H8.2868C7.946 9.89882 7.67 10.1748 7.67 10.5156V18.3632H6.6808V13.56C6.6808 13.2192 6.4048 12.9432 6.064 12.9432H3.228C2.8872 12.9432 2.6112 13.2192 2.6112 13.56V18.98C2.6112 19.3208 2.8872 19.5972 3.228 19.5972ZM39.8 28.5304C39.8 33.0828 36.096 36.786 31.5436 36.786C29.3284 36.786 27.3144 35.9088 25.83 34.484H0.817197C0.476797 34.484 0.199997 34.208 0.199997 33.8676V3.83082C0.199997 3.49042 0.476397 3.21362 0.817197 3.21362H31.5436C31.8848 3.21362 32.1608 3.49002 32.1608 3.83082V20.2968C36.426 20.6136 39.8 24.1848 39.8 28.5304ZM8.704 6.09762C8.704 6.65842 9.1592 7.11442 9.7188 7.11442C10.2796 7.11442 10.7348 6.65842 10.7348 6.09762C10.7348 5.53682 10.2796 5.08162 9.7188 5.08162C9.1592 5.08122 8.704 5.53682 8.704 6.09762ZM5.5792 6.09762C5.5792 6.65842 6.0352 7.11442 6.5952 7.11442C7.1544 7.11442 7.61 6.65842 7.61 6.09762C7.61 5.53682 7.1548 5.08162 6.5952 5.08162C6.0352 5.08122 5.5792 5.53682 5.5792 6.09762ZM2.4536 6.09762C2.4536 6.65842 2.9096 7.11442 3.4704 7.11442C4.0312 7.11442 4.4872 6.65842 4.4872 6.09762C4.4872 5.53682 4.0312 5.08162 3.4704 5.08162C2.9096 5.08162 2.4536 5.53682 2.4536 6.09762ZM1.4344 33.2508H24.7744C23.838 31.912 23.288 30.2844 23.288 28.5304C23.288 24.1848 26.662 20.6132 30.9276 20.2968V8.98122H1.4344V33.2508ZM35.3664 30.1004L32.1608 28.8392V23.2648C32.1608 22.9244 31.8848 22.6484 31.5436 22.6484C31.2032 22.6484 30.9272 22.924 30.9272 23.2648V29.2592C30.9272 29.5128 31.082 29.7408 31.3176 29.834L34.9148 31.2484C34.9888 31.2776 35.0652 31.2916 35.1404 31.2916C35.386 31.2916 35.6188 31.1436 35.7144 30.9004C35.8392 30.5836 35.6836 30.2252 35.3664 30.1004ZM21.9632 26.3188H15.6892C15.3484 26.3188 15.0724 26.5948 15.0724 26.9356C15.0724 27.2764 15.3484 27.5524 15.6892 27.5524H21.9636C22.3044 27.5524 22.5804 27.2764 22.5804 26.9356C22.58 26.5952 22.304 26.3188 21.9632 26.3188Z" fill="white"/>
</svg>
