<svg width="40" height="40" viewBox="0 0 40 40" fill="none" xmlns="http://www.w3.org/2000/svg">
<path d="M30.6056 38.0973C30.6056 38.7786 30.0482 39.3359 29.367 39.3359H10.633C9.95176 39.3359 9.39442 38.7786 9.39442 38.0973C9.39442 37.4161 9.95176 36.8587 10.633 36.8587H29.367C30.0482 36.8587 30.6056 37.416 30.6056 38.0973ZM15.4041 33.0164L14.0911 35.6868H25.9088L24.5957 33.0164H15.4041ZM33.07 3.33883H6.77793V2.17781C6.77793 1.34531 7.45911 0.664062 8.29169 0.664062H31.5562C32.3888 0.664062 33.07 1.34531 33.07 2.17781V3.33883ZM10.8547 2.00141C10.8547 1.67781 10.5924 1.41547 10.2688 1.41547H9.44239C9.11879 1.41547 8.85645 1.67781 8.85645 2.00141C8.85645 2.325 9.11879 2.58734 9.44239 2.58734H10.2688C10.5924 2.58742 10.8547 2.325 10.8547 2.00141ZM13.6332 2.00141C13.6332 1.67781 13.3709 1.41547 13.0473 1.41547H12.2209C11.8973 1.41547 11.635 1.67781 11.635 2.00141C11.635 2.325 11.8973 2.58734 12.2209 2.58734H13.0473C13.3708 2.58742 13.6332 2.325 13.6332 2.00141ZM16.4117 2.00141C16.4117 1.67781 16.1493 1.41547 15.8257 1.41547H14.9993C14.6757 1.41547 14.4134 1.67781 14.4134 2.00141C14.4134 2.325 14.6757 2.58734 14.9993 2.58734H15.8257C16.1493 2.58742 16.4117 2.325 16.4117 2.00141ZM30.8243 2.00141C30.8243 1.67781 30.5619 1.41547 30.2383 1.41547H20.8936C20.57 1.41547 20.3077 1.67781 20.3077 2.00141C20.3077 2.325 20.57 2.58734 20.8936 2.58734H30.2383C30.5619 2.58742 30.8243 2.325 30.8243 2.00141ZM6.77793 25.5945V4.5107H33.07V25.5945C33.07 26.427 32.3889 27.1082 31.5563 27.1082H8.29169C7.45911 27.1082 6.77793 26.427 6.77793 25.5945ZM18.7304 21.3871C18.7304 21.3012 18.6601 21.2309 18.5742 21.2309H10.1125C10.0265 21.2309 9.95622 21.3012 9.95622 21.3871V23.8512C9.95622 23.9372 10.0265 24.0075 10.1125 24.0075H18.5742C18.6601 24.0075 18.7304 23.9372 18.7304 23.8512V21.3871ZM20.8211 9.62875C20.8211 9.95234 21.0835 10.2147 21.4071 10.2147H29.945C30.2686 10.2147 30.531 9.95234 30.531 9.62875C30.531 9.30516 30.2686 9.04281 29.945 9.04281H21.4071C21.0835 9.04281 20.8211 9.30516 20.8211 9.62875ZM20.8211 12.9885C20.8211 13.3121 21.0835 13.5745 21.4071 13.5745H29.945C30.2686 13.5745 30.531 13.3121 30.531 12.9885C30.531 12.6649 30.2686 12.4026 29.945 12.4026H21.4071C21.0835 12.4026 20.8211 12.665 20.8211 12.9885ZM20.8211 16.3484C20.8211 16.672 21.0835 16.9344 21.4071 16.9344H29.945C30.2686 16.9344 30.531 16.672 30.531 16.3484C30.531 16.0248 30.2686 15.7625 29.945 15.7625H21.4071C21.0835 15.7625 20.8211 16.0248 20.8211 16.3484ZM20.8211 19.7083C20.8211 20.0319 21.0835 20.2942 21.4071 20.2942H29.945C30.2686 20.2942 30.531 20.0319 30.531 19.7083C30.531 19.3847 30.2686 19.1223 29.945 19.1223H21.4071C21.0835 19.1223 20.8211 19.3847 20.8211 19.7083ZM20.8211 23.068C20.8211 23.3916 21.0835 23.654 21.4071 23.654H29.945C30.2686 23.654 30.531 23.3916 30.531 23.068C30.531 22.7445 30.2686 22.4821 29.945 22.4821H21.4071C21.0835 22.4821 20.8211 22.7445 20.8211 23.068ZM11.6693 10.2527C11.6693 11.7115 12.8665 12.8941 14.3434 12.8941C15.8203 12.8941 17.0175 11.7115 17.0175 10.2527C17.0175 8.79398 15.8204 7.61141 14.3434 7.61141C12.8665 7.61141 11.6693 8.79398 11.6693 10.2527ZM9.90294 18.178C9.90294 18.3039 10.006 18.407 10.132 18.407H18.5548C18.6807 18.407 18.7838 18.3039 18.7838 18.178V16.2791C18.7838 14.9143 18.0504 13.7127 16.9583 13.0485C16.2721 13.6798 15.3533 14.0659 14.3434 14.0659C13.3335 14.0659 12.4147 13.6797 11.7284 13.0485C10.6363 13.7127 9.90294 14.9144 9.90294 16.2791V18.178ZM36.657 5.42234H34.2418V7.67094H36.1146V29.596H3.88536V7.67086H5.60606V5.42234H3.34293C2.4045 5.42234 1.63684 6.19008 1.63684 7.12844V30.1384C1.63684 31.0769 2.40458 31.8445 3.34293 31.8445H36.657C37.5954 31.8445 38.3632 31.0768 38.3632 30.1384V7.12844C38.3632 6.19 37.5954 5.42234 36.657 5.42234Z" fill="white"/>
</svg>
