<svg width="40" height="40" viewBox="0 0 40 40" fill="none" xmlns="http://www.w3.org/2000/svg">
<g clip-path="url(#clip0_2029_290)">
<path fill-rule="evenodd" clip-rule="evenodd" d="M0.488037 7.36315H15.7365V0.487915H33.0111L39.5119 6.98877V32.6368H24.2637V39.5121H0.488037V7.36315ZM4.05007 14.8435V14.8531H4.05976L8.00647 16.2743V12.0683V11.012C6.93085 11.0985 5.91351 11.473 5.05858 12.0683C4.20405 12.6732 3.50327 13.4991 3.0614 14.4882L4.05007 14.8435ZM8.0064 21.2964V17.2346L4.19436 15.8614C4.00202 16.6297 4.03093 17.4265 4.24241 18.166C4.50155 19.0399 5.0296 19.8367 5.79772 20.4226C6.45069 20.9219 7.21913 21.2194 8.0064 21.2964ZM8.91882 12.5485V15.8804L11.3674 13.6143C11.2714 13.5278 11.1753 13.451 11.0697 13.3742C10.4455 12.9135 9.70616 12.6253 8.91882 12.5485ZM11.9822 14.2864L8.91882 17.1192V21.2964C9.64851 21.2195 10.3687 20.9603 10.9929 20.5185C11.7706 19.9711 12.3369 19.203 12.6252 18.3483L12.6349 18.3292C12.9228 17.4649 12.9516 16.5145 12.6635 15.5927C12.5102 15.1124 12.2794 14.6707 11.9822 14.2864ZM15.7365 8.33299H1.45757V38.5328H23.2839V32.6368H15.7365V8.33299ZM38.1292 6.98877L33.0111 1.87049V6.98877H38.1292ZM26.0976 4.40565C26.3665 4.40565 26.5776 4.62667 26.5776 4.89534C26.5776 5.16432 26.3665 5.38518 26.0976 5.38518H18.6269C18.358 5.38518 18.1373 5.1644 18.1373 4.89534C18.1373 4.62674 18.3579 4.40565 18.6269 4.40565H26.0976ZM19.2893 17.8682C19.0493 17.9739 18.7612 17.849 18.6556 17.609C18.5595 17.3595 18.6748 17.0712 18.9246 16.9656L34.4227 10.5993L33.3568 10.1192C33.107 10.0135 33.0015 9.72549 33.107 9.47588C33.2226 9.23581 33.5103 9.12057 33.7505 9.23581L35.8534 10.1672C36.0937 10.2728 36.1993 10.5418 36.113 10.7817L35.3254 12.8559C35.2293 13.1152 34.9508 13.24 34.7014 13.144C34.4515 13.0481 34.317 12.7696 34.413 12.5199L34.8065 11.4924L19.2893 17.8682ZM26.0976 6.87346C26.3665 6.87346 26.5776 7.09432 26.5776 7.36315C26.5776 7.63198 26.3665 7.85299 26.0976 7.85299H18.6269C18.358 7.85299 18.1373 7.63198 18.1373 7.36315C18.1373 7.09432 18.3579 6.87346 18.6269 6.87346H26.0976ZM19.0013 28.8343C18.7323 28.8343 18.5114 28.6229 18.5114 28.3541C18.5114 28.0853 18.7322 27.8643 19.0013 27.8643H20.7587V19.7696H23.7641V27.8643H26.1167V17.3112H29.1221V27.8643H31.475V14.8627H34.4805V27.8643H36.2472C36.5161 27.8643 36.7273 28.0852 36.7273 28.3541C36.7273 28.623 36.5162 28.8343 36.2472 28.8343H19.0013ZM12.7788 33.9139C13.0474 33.9139 13.2684 34.1348 13.2684 34.4038C13.2684 34.6724 13.0475 34.8934 12.7788 34.8934H3.04218C2.77311 34.8934 2.5521 34.6725 2.5521 34.4038C2.5521 34.1349 2.77311 33.9139 3.04218 33.9139H12.7788ZM12.7788 31.446C13.0474 31.446 13.2684 31.6668 13.2684 31.9359C13.2684 32.2046 13.0475 32.4256 12.7788 32.4256H3.04218C2.77311 32.4256 2.5521 32.2047 2.5521 31.9359C2.5521 31.6669 2.77311 31.446 3.04218 31.446H12.7788ZM12.7788 28.9782C13.0474 28.9782 13.2684 29.1992 13.2684 29.4681C13.2684 29.7368 13.0475 29.9578 12.7788 29.9578H10.8008C10.5321 29.9578 10.3208 29.7369 10.3208 29.4681C10.3208 29.1992 10.532 28.9782 10.8008 28.9782H12.7788ZM8.96679 28.9782C9.23561 28.9782 9.45624 29.1992 9.45624 29.4681C9.45624 29.7368 9.23569 29.9578 8.96679 29.9578H3.04218C2.77311 29.9578 2.5521 29.7369 2.5521 29.4681C2.5521 29.1992 2.77311 28.9782 3.04218 28.9782H8.96679ZM12.7788 24.0426C13.0474 24.0426 13.2684 24.2635 13.2684 24.5325C13.2684 24.8011 13.0475 25.0221 12.7788 25.0221H5.1739C4.90515 25.0221 4.68405 24.8012 4.68405 24.5325C4.68405 24.2635 4.90507 24.0426 5.1739 24.0426H12.7788ZM12.7788 26.5105C13.0474 26.5105 13.2684 26.7313 13.2684 27.0002C13.2684 27.2691 13.0475 27.4899 12.7788 27.4899H3.04218C2.77311 27.4899 2.5521 27.2691 2.5521 27.0002C2.5521 26.7313 2.77311 26.5105 3.04218 26.5105H12.7788Z" fill="white"/>
</g>
<defs>
<clipPath id="clip0_2029_290">
<rect width="40" height="40" fill="white"/>
</clipPath>
</defs>
</svg>
