<svg width="40" height="40" viewBox="0 0 40 40" fill="none" xmlns="http://www.w3.org/2000/svg">
<path d="M12.7792 34.4194V36.964H19.4091C18.738 36.2659 18.2491 35.3924 18.0183 34.4194H12.7792Z" fill="white"/>
<path d="M26.9201 34.6166C27.7275 32.6688 26.803 30.4353 24.8551 29.6279C22.9073 28.8205 20.6738 29.745 19.8664 31.6929C19.059 33.6407 19.9835 35.8742 21.9313 36.6816C23.8792 37.489 26.1127 36.5645 26.9201 34.6166Z" fill="white"/>
<path d="M17.8684 13.2142C17.8684 11.3433 19.3905 9.82134 21.2613 9.82134H29.3113C25.5947 4.60072 19.129 2.0479 12.7792 3.38892V7.27673C12.7792 7.74447 13.1598 8.12494 13.6274 8.12494C15.0333 8.12494 16.172 9.26353 16.172 10.6695C16.172 12.0755 15.0334 13.2142 13.6274 13.2142H6.84172C6.37406 13.2142 5.99352 13.5946 5.99352 14.0624C5.99352 14.5306 6.37336 14.9106 6.84172 14.9106H10.2345C11.6377 14.9106 12.7791 16.0521 12.7791 17.4552C12.7791 18.8611 11.6405 19.9998 10.2345 19.9998H0.078125C0.424844 26.6238 4.82086 32.3687 11.0827 34.4467C11.0827 32.5249 11.0827 27.1468 11.0827 25.089C11.0827 24.6206 11.4625 24.2408 11.9309 24.2408H17.8684V13.2142H17.8684Z" fill="white"/>
<path d="M12.7792 32.723H17.8864C17.9577 31.7912 18.2612 30.9239 18.7397 30.1783H12.7792V32.723Z" fill="white"/>
<path d="M12.7792 25.9373H20.4131V28.4819H12.7792V25.9373Z" fill="white"/>
<path d="M38.2255 11.5177H21.2613C20.3259 11.5177 19.5648 12.2787 19.5648 13.2141V24.2408H21.2613C21.7297 24.2408 22.1095 24.6206 22.1095 25.089V27.7835C25.5852 26.959 28.8952 29.6109 28.8952 33.147C28.8952 34.6275 28.3075 35.9725 27.3545 36.964H38.2254C39.1609 36.964 39.9218 36.2029 39.9218 35.2675V13.2141C39.9219 12.2787 39.1609 11.5177 38.2255 11.5177ZM30.8015 16.8966L33.7702 13.5038C34.107 13.1193 34.7082 13.1171 35.0469 13.5038L38.0156 16.8966C38.3242 17.2491 38.2884 17.785 37.9359 18.0935C37.5834 18.4018 37.0474 18.3663 36.739 18.0137L35.2568 16.3198V20.848C35.2568 21.3165 34.877 21.6962 34.4086 21.6962C33.9402 21.6962 33.5604 21.3165 33.5604 20.848V16.3198L32.0781 18.0137C31.7697 18.3662 31.2339 18.4019 30.8813 18.0935C30.5287 17.785 30.4929 17.2492 30.8015 16.8966ZM24.4399 21.4065L21.4712 18.0137C21.1627 17.6611 21.1984 17.1253 21.5509 16.8168C21.9034 16.5084 22.4393 16.544 22.7478 16.8967L24.23 18.5906V14.0624C24.23 13.5939 24.6098 13.2142 25.0782 13.2142C25.5466 13.2142 25.9264 13.5939 25.9264 14.0624V18.5906L27.4086 16.8967C27.717 16.5441 28.2528 16.5084 28.6055 16.8168C28.958 17.1253 28.9938 17.6612 28.6852 18.0137C25.5866 21.551 25.7232 21.4093 25.6372 21.4848C25.2833 21.7957 24.748 21.7582 24.4399 21.4065ZM37.3773 35.2675H31.4398C30.9713 35.2675 30.5916 34.8878 30.5916 34.4193C30.5916 33.9509 30.9713 33.5711 31.4398 33.5711H37.3773C37.8457 33.5711 38.2255 33.9509 38.2255 34.4193C38.2255 34.8878 37.8456 35.2675 37.3773 35.2675ZM37.3773 31.8747H31.4398C30.9713 31.8747 30.5916 31.495 30.5916 31.0265C30.5916 30.5581 30.9713 30.1783 31.4398 30.1783H37.3773C37.8457 30.1783 38.2255 30.5581 38.2255 31.0265C38.2255 31.495 37.8456 31.8747 37.3773 31.8747ZM37.3773 28.4819H31.4398C30.9713 28.4819 30.5916 28.1022 30.5916 27.6337C30.5916 27.1653 30.9713 26.7855 31.4398 26.7855H37.3773C37.8457 26.7855 38.2255 27.1653 38.2255 27.6337C38.2255 28.1022 37.8456 28.4819 37.3773 28.4819ZM37.3773 25.089H26.3506C25.8821 25.089 25.5023 24.7093 25.5023 24.2408C25.5023 23.7724 25.8821 23.3926 26.3506 23.3926H37.3773C37.8457 23.3926 38.2255 23.7724 38.2255 24.2408C38.2255 24.7093 37.8456 25.089 37.3773 25.089Z" fill="white"/>
<path d="M11.0827 17.4552C11.0827 16.9875 10.7022 16.607 10.2345 16.607H6.84172C5.43586 16.607 4.29711 15.4685 4.29711 14.0624C4.29711 12.6593 5.43867 11.5178 6.84172 11.5178H13.6274C14.0957 11.5178 14.4756 11.138 14.4756 10.6696C14.4756 10.2013 14.0957 9.82142 13.6274 9.82142C12.2243 9.82142 11.0828 8.67994 11.0828 7.27681V3.85486C4.79031 5.94095 0.410471 11.7038 0.0786743 18.3035H10.2345C10.7028 18.3035 11.0827 17.9236 11.0827 17.4552Z" fill="white"/>
</svg>
