<svg width="40" height="40" viewBox="0 0 40 40" fill="none" xmlns="http://www.w3.org/2000/svg">
<path d="M10.881 1.53601V7.97147C10.881 9.46917 9.67186 10.6782 8.17416 10.6782H1.73871C1.86355 9.92161 2.21453 9.22735 2.76058 8.6813L8.88405 2.55788C9.43004 2.01183 10.1243 1.6608 10.881 1.53601Z" fill="white"/>
<path d="M27.6287 1.48145H12.0511V7.97151C12.0511 10.1089 10.3115 11.8484 8.17416 11.8484H1.68408V34.8288C1.68408 36.8648 3.3378 38.5185 5.37378 38.5185H27.6287C27.8316 38.5185 28.0266 38.5029 28.2138 38.4639C24.3447 36.1393 23.1824 32.044 23.1512 29.9067V24.2591C23.1512 23.2528 23.7831 22.3479 24.727 21.9969L30.4838 19.8674C30.749 19.7659 31.0298 19.7191 31.3184 19.7191V5.1711C31.3184 3.13516 29.6647 1.48145 27.6287 1.48145ZM19.5006 34.9381H7.2147C6.89485 34.9381 6.62966 34.6806 6.62966 34.353C6.62966 34.0332 6.89485 33.768 7.2147 33.768H19.5006C19.8204 33.768 20.0856 34.0332 20.0856 34.353C20.0856 34.6806 19.8204 34.9381 19.5006 34.9381ZM21.2401 30.8428H7.2147C6.89485 30.8428 6.62966 30.5853 6.62966 30.2655C6.62966 29.9379 6.89485 29.6727 7.2147 29.6727H21.2401C21.5599 29.6727 21.8251 29.9379 21.8251 30.2655C21.8251 30.5853 21.5599 30.8428 21.2401 30.8428ZM21.2401 26.7553H7.2147C6.89485 26.7553 6.62966 26.49 6.62966 26.1702C6.62966 25.8426 6.89485 25.5852 7.2147 25.5852H21.2401C21.5599 25.5852 21.8251 25.8426 21.8251 26.1702C21.8251 26.49 21.5599 26.7553 21.2401 26.7553ZM18.1433 21.4977C14.438 21.4977 11.4426 18.5023 11.4426 14.8048C11.4426 11.3024 14.126 8.43176 17.5582 8.13534V15.0622C17.5582 15.382 17.8234 15.6473 18.1433 15.6473H24.7893C24.3759 18.9469 21.5521 21.4977 18.1433 21.4977ZM18.7283 14.4772V8.1431C20.4054 8.28356 21.9109 9.04799 22.9952 10.2103C24.0639 11.3257 24.7581 12.8234 24.8361 14.4772H18.7283Z" fill="white"/>
<path d="M37.5026 23.0935L31.7504 20.9658C31.4716 20.8626 31.1652 20.8626 30.8864 20.9658L25.1341 23.0935C24.6454 23.2743 24.3209 23.7402 24.3209 24.2613V29.8896C24.3209 29.8896 24.4208 36.3376 30.9466 38.4217C31.1859 38.4981 31.4509 38.4981 31.6901 38.4217C38.2159 36.3376 38.3158 29.8896 38.3158 29.8896V24.2613C38.3158 23.7402 37.9914 23.2743 37.5026 23.0935ZM31.9034 30.1095V32.3483C31.9034 32.6681 31.6382 32.9333 31.3184 32.9333C30.9986 32.9333 30.7333 32.6681 30.7333 32.3483V30.1095C29.8363 29.8521 29.1888 29.033 29.1888 28.0658C29.1888 26.8879 30.1405 25.9362 31.3184 25.9362C32.4963 25.9362 33.4479 26.8879 33.4479 28.0658C33.448 29.033 32.8005 29.8521 31.9034 30.1095Z" fill="white"/>
</svg>
