<svg width="40" height="40" viewBox="0 0 40 40" fill="none" xmlns="http://www.w3.org/2000/svg">
<path fill-rule="evenodd" clip-rule="evenodd" d="M16.4866 22.6723C16.3224 21.9823 16.0489 21.3234 15.6771 20.7195L16.2403 19.4514L14.7452 17.9562L13.4766 18.5197C12.8728 18.148 12.2141 17.8745 11.5244 17.7104L11.0261 16.4159H8.91171L8.41343 17.7104C7.72367 17.8745 7.065 18.148 6.46125 18.5197L5.19265 17.9562L3.69757 19.4514L4.26093 20.7198C3.88914 21.3236 3.6157 21.9824 3.45156 22.6722L2.1571 23.1704V25.2848L3.45132 25.783C3.61554 26.4728 3.8889 27.1319 4.26078 27.7357L3.69749 29.0038L5.19265 30.4989L6.46117 29.9355C7.06492 30.3073 7.72359 30.5807 8.41343 30.7448L8.91171 32.0394H11.0261L11.5242 30.7452C12.2141 30.581 12.8731 30.3076 13.4769 29.9356L14.7451 30.4989L16.2402 29.0038L15.6768 27.7352C16.0485 27.1315 16.3219 26.4728 16.4861 25.783L17.7806 25.2848V23.1703L16.4866 22.6723ZM9.9689 27.9151C7.93218 27.9151 6.2814 26.2643 6.2814 24.2276C6.2814 22.1909 7.93218 20.5401 9.9689 20.5401C12.0056 20.5401 13.6564 22.1909 13.6564 24.2276C13.6564 26.2644 12.0057 27.9151 9.9689 27.9151ZM35.5116 17.0449H22.1669C20.8848 17.0449 19.8357 18.094 19.8357 19.3762V36.4188C19.8357 37.7009 20.8848 38.75 22.1669 38.75H35.5116C36.7939 38.75 37.843 37.7009 37.843 36.4188V19.3762C37.8429 18.094 36.7938 17.0449 35.5116 17.0449ZM25.9754 34.8679C25.9754 35.163 25.7346 35.4038 25.4394 35.4038H23.4364C23.1412 35.4038 22.9005 35.163 22.9005 34.8679V34.1712C22.9005 33.876 23.1412 33.6352 23.4364 33.6352H25.4394C25.7346 33.6352 25.9754 33.876 25.9754 34.1712V34.8679ZM25.9754 31.1097C25.9754 31.4048 25.7346 31.6456 25.4394 31.6456H23.4364C23.1412 31.6456 22.9005 31.4048 22.9005 31.1097V30.413C22.9005 30.1178 23.1412 29.877 23.4364 29.877H25.4394C25.7346 29.877 25.9754 30.1178 25.9754 30.413V31.1097ZM25.9754 27.3515C25.9754 27.6466 25.7346 27.8874 25.4394 27.8874H23.4364C23.1412 27.8874 22.9005 27.6466 22.9005 27.3515V26.6548C22.9005 26.3596 23.1412 26.1188 23.4364 26.1188H25.4394C25.7346 26.1188 25.9754 26.3596 25.9754 26.6548V27.3515ZM30.3767 34.8679C30.3767 35.163 30.1359 35.4038 29.8408 35.4038H27.8377C27.5426 35.4038 27.3019 35.163 27.3019 34.8679V34.1712C27.3019 33.876 27.5426 33.6352 27.8377 33.6352H29.8408C30.1359 33.6352 30.3767 33.876 30.3767 34.1712V34.8679ZM30.3767 31.1097C30.3767 31.4048 30.1359 31.6456 29.8408 31.6456H27.8377C27.5426 31.6456 27.3019 31.4048 27.3019 31.1097V30.413C27.3019 30.1178 27.5426 29.877 27.8377 29.877H29.8408C30.1359 29.877 30.3767 30.1178 30.3767 30.413V31.1097ZM30.3767 27.3515C30.3767 27.6466 30.1359 27.8874 29.8408 27.8874H27.8377C27.5426 27.8874 27.3019 27.6466 27.3019 27.3515V26.6548C27.3019 26.3596 27.5426 26.1188 27.8377 26.1188H29.8408C30.1359 26.1188 30.3767 26.3596 30.3767 26.6548V27.3515ZM34.778 34.8679C34.778 35.163 34.5373 35.4038 34.2421 35.4038H32.2391C31.9439 35.4038 31.7032 35.163 31.7032 34.8679V34.1712C31.7032 33.876 31.9439 33.6352 32.2391 33.6352H34.2421C34.5373 33.6352 34.778 33.876 34.778 34.1712V34.8679ZM34.778 31.1097C34.778 31.4048 34.5373 31.6456 34.2421 31.6456H32.2391C31.9439 31.6456 31.7032 31.4048 31.7032 31.1097V30.413C31.7032 30.1178 31.9439 29.877 32.2391 29.877H34.2421C34.5373 29.877 34.778 30.1178 34.778 30.413V31.1097ZM34.778 27.3515C34.778 27.6466 34.5373 27.8874 34.2421 27.8874H32.2391C31.9439 27.8874 31.7032 27.6466 31.7032 27.3515V26.6548C31.7032 26.3596 31.9439 26.1188 32.2391 26.1188H34.2421C34.5373 26.1188 34.778 26.3596 34.778 26.6548V27.3515ZM35.2704 23.0305C35.2704 23.3257 35.0296 23.5665 34.7345 23.5665H22.9441C22.6489 23.5665 22.4081 23.3258 22.4081 23.0305V20.927C22.4081 20.6319 22.6489 20.3911 22.9441 20.3911H34.7345C35.0297 20.3911 35.2705 20.6319 35.2705 20.927L35.2704 23.0305ZM31.2647 1.30758V5.03539C31.2647 5.21828 31.4138 5.36742 31.5967 5.36742H35.3245C35.2923 5.29688 35.2466 5.23203 35.1876 5.17297L31.4592 1.44453C31.4002 1.38547 31.3352 1.33977 31.2647 1.30758ZM18.5857 34.1878H10.633C10.2672 34.1878 9.9689 33.8895 9.9689 33.5238V33.2895H11.8844L12.467 31.7758C12.8348 31.6541 13.1934 31.5054 13.5394 31.3312L15.0223 31.9898L17.7311 29.2809L17.0723 27.7977C17.2464 27.4518 17.395 27.0934 17.5167 26.7259L18.5857 26.3144V34.1878ZM31.5967 6.61742C30.724 6.61742 30.0147 5.9082 30.0147 5.03539V1.25H10.633C10.2672 1.25 9.9689 1.54836 9.9689 1.91406V15.1658H11.8844L12.4671 16.6798C12.8347 16.8016 13.193 16.9502 13.5389 17.1242L15.0222 16.4655L17.7311 19.1744L17.0725 20.6571C17.2466 21.0032 17.3953 21.3617 17.5171 21.7295L18.5857 22.1407V19.3761C18.5857 17.4064 20.1973 15.7948 22.1669 15.7948H35.3821V6.61742H31.5967ZM17.261 13.952C14.7641 13.952 12.7401 11.9279 12.7401 9.43102C12.7401 6.93414 14.7642 4.91008 17.261 4.91008C19.7579 4.91008 21.7819 6.93414 21.7819 9.43102C21.782 11.928 19.7579 13.952 17.261 13.952ZM29.6298 13.0613H24.1273C23.7822 13.0613 23.5023 12.7815 23.5023 12.4363C23.5023 12.0912 23.7822 11.8113 24.1273 11.8113H29.6298C29.9749 11.8113 30.2548 12.0912 30.2548 12.4363C30.2548 12.7816 29.975 13.0613 29.6298 13.0613ZM29.6298 10.0561H24.1273C23.7822 10.0561 23.5023 9.77625 23.5023 9.43109C23.5023 9.08594 23.7822 8.80609 24.1273 8.80609H29.6298C29.9749 8.80609 30.2548 9.08594 30.2548 9.43109C30.2548 9.77625 29.975 10.0561 29.6298 10.0561ZM29.6298 7.05078H24.1273C23.7822 7.05078 23.5023 6.77094 23.5023 6.42578C23.5023 6.08063 23.7822 5.80078 24.1273 5.80078H29.6298C29.9749 5.80078 30.2548 6.08063 30.2548 6.42578C30.2548 6.77094 29.975 7.05078 29.6298 7.05078Z" fill="white"/>
<path d="M17.5186 7.01855C17.1214 7.01855 16.7943 7.13411 16.5371 7.36523C16.2799 7.5931 16.1139 7.92513 16.0391 8.36133H18.0068V9.2207H15.9658L15.9561 9.3916V9.62109L15.9658 9.78223H17.6992V10.6514H16.0488C16.2148 11.4424 16.7373 11.8379 17.6162 11.8379C18.0817 11.8379 18.5293 11.7451 18.959 11.5596V12.8096C18.5814 13.0016 18.1045 13.0977 17.5283 13.0977C16.7308 13.0977 16.0749 12.8812 15.5605 12.4482C15.0462 12.0153 14.7223 11.4163 14.5889 10.6514H13.9199V9.78223H14.4961C14.4831 9.70736 14.4766 9.60645 14.4766 9.47949L14.4863 9.2207H13.9199V8.36133H14.5693C14.6898 7.57357 15.0137 6.95182 15.541 6.49609C16.0684 6.03711 16.7275 5.80762 17.5186 5.80762C18.1305 5.80762 18.7035 5.94108 19.2373 6.20801L18.7588 7.34082C18.5342 7.23991 18.3242 7.16178 18.1289 7.10645C17.9336 7.04785 17.7301 7.01855 17.5186 7.01855Z" fill="#09265E"/>
</svg>
