<svg width="40" height="40" viewBox="0 0 40 40" fill="none" xmlns="http://www.w3.org/2000/svg">
<path fill-rule="evenodd" clip-rule="evenodd" d="M19.8047 2.38156V5.49219C19.8055 5.6595 19.8723 5.81972 19.9906 5.93802C20.1089 6.05632 20.2692 6.12313 20.4365 6.12391H23.5469L19.8047 2.38172V2.38156ZM20.0944 21.9355L22.7368 19.8702C22.8737 20.1539 23.07 20.4048 23.3124 20.6059L20.6697 22.6711C20.5328 22.3875 20.3365 22.1367 20.0941 21.9355H20.0944ZM30.8025 20.0918C31.0497 20.0918 31.2914 20.1651 31.497 20.3025C31.7025 20.4398 31.8627 20.635 31.9573 20.8634C32.052 21.0919 32.0767 21.3432 32.0285 21.5857C31.9803 21.8281 31.8612 22.0509 31.6864 22.2257C31.5116 22.4005 31.2888 22.5195 31.0464 22.5678C30.8039 22.616 30.5526 22.5913 30.3241 22.4966C30.0957 22.402 29.9005 22.2418 29.7632 22.0363C29.6258 21.8307 29.5525 21.589 29.5525 21.3418C29.5525 21.0103 29.6842 20.6923 29.9186 20.4579C30.153 20.2235 30.471 20.0918 30.8025 20.0918ZM18.698 22.3695C18.9453 22.3695 19.1869 22.4428 19.3925 22.5801C19.5981 22.7175 19.7583 22.9127 19.8529 23.1411C19.9475 23.3695 19.9723 23.6208 19.924 23.8633C19.8758 24.1058 19.7567 24.3285 19.5819 24.5033C19.4071 24.6782 19.1844 24.7972 18.9419 24.8454C18.6994 24.8937 18.4481 24.8689 18.2197 24.7743C17.9913 24.6797 17.7961 24.5195 17.6587 24.3139C17.5214 24.1084 17.448 23.8667 17.448 23.6195C17.448 23.2879 17.5797 22.97 17.8142 22.7356C18.0486 22.5011 18.3665 22.3695 18.698 22.3695ZM24.7082 17.672C24.9554 17.672 25.1971 17.7453 25.4027 17.8826C25.6082 18.02 25.7684 18.2152 25.8631 18.4436C25.9577 18.672 25.9824 18.9233 25.9342 19.1658C25.886 19.4083 25.7669 19.631 25.5921 19.8058C25.4173 19.9807 25.1945 20.0997 24.9521 20.1479C24.7096 20.1962 24.4583 20.1714 24.2298 20.0768C24.0014 19.9822 23.8062 19.822 23.6689 19.6164C23.5315 19.4109 23.4582 19.1692 23.4582 18.922C23.4582 18.5904 23.5899 18.2725 23.8243 18.0381C24.0587 17.8036 24.3767 17.672 24.7082 17.672ZM26.8672 19.2769L28.9886 20.1193C28.8123 20.3802 28.6947 20.6763 28.644 20.987L26.5225 20.1446C26.6989 19.8837 26.8165 19.5877 26.8672 19.2769ZM31.8491 19.4208L35.3471 15.3842L33.8948 15.7194C33.7741 15.7466 33.6475 15.7249 33.5427 15.6589C33.438 15.5929 33.3636 15.4881 33.336 15.3675C33.3084 15.2468 33.3297 15.1201 33.3953 15.0151C33.461 14.9102 33.5655 14.8355 33.6861 14.8075L36.5358 14.1499C36.6043 14.1344 36.6754 14.1345 36.7439 14.1502C36.8123 14.1659 36.8764 14.1967 36.9313 14.2405C36.9863 14.2843 37.0307 14.3398 37.0612 14.4031C37.0918 14.4663 37.1078 14.5356 37.108 14.6059H37.1089V17.3252C37.1089 17.4496 37.0595 17.5688 36.9716 17.6567C36.8837 17.7446 36.7645 17.794 36.6402 17.794C36.5158 17.794 36.3966 17.7446 36.3087 17.6567C36.2208 17.5688 36.1714 17.4496 36.1714 17.3252V15.8603L32.5547 20.033C32.3659 19.7807 32.1251 19.5719 31.8485 19.4208H31.8491ZM16.5878 38.75H20.8082V30.6998H16.5878V38.75ZM34.5296 38.75H38.75V21.4694H34.5296V38.75ZM28.549 38.75H32.7694V26.7428H28.549V38.75ZM22.5684 38.75H26.7891V24.6055H22.5684V38.75ZM10.0184 21.6085C9.89412 21.6085 9.77489 21.5591 9.68698 21.4712C9.59907 21.3833 9.54969 21.2641 9.54969 21.1398C9.54969 21.0154 9.59907 20.8962 9.68698 20.8083C9.77489 20.7204 9.89412 20.671 10.0184 20.671H15.1323C15.2566 20.671 15.3758 20.7204 15.4637 20.8083C15.5516 20.8962 15.601 21.0154 15.601 21.1398C15.601 21.2641 15.5516 21.3833 15.4637 21.4712C15.3758 21.5591 15.2566 21.6085 15.1323 21.6085H10.0184ZM10.0184 10.9113C9.89412 10.9113 9.77489 10.8619 9.68698 10.774C9.59907 10.686 9.54969 10.5668 9.54969 10.4425C9.54969 10.3182 9.59907 10.199 9.68698 10.111C9.77489 10.0231 9.89412 9.97375 10.0184 9.97375H20.2461C20.3704 9.97375 20.4896 10.0231 20.5775 10.111C20.6655 10.199 20.7148 10.3182 20.7148 10.4425C20.7148 10.5668 20.6655 10.686 20.5775 10.774C20.4896 10.8619 20.3704 10.9113 20.2461 10.9113H10.0184ZM10.0184 13.9676C9.89412 13.9676 9.77489 13.9182 9.68698 13.8303C9.59907 13.7424 9.54969 13.6231 9.54969 13.4988C9.54969 13.3745 9.59907 13.2553 9.68698 13.1674C9.77489 13.0795 9.89412 13.0301 10.0184 13.0301H20.2461C20.3704 13.0301 20.4896 13.0795 20.5775 13.1674C20.6655 13.2553 20.7148 13.3745 20.7148 13.4988C20.7148 13.6231 20.6655 13.7424 20.5775 13.8303C20.4896 13.9182 20.3704 13.9676 20.2461 13.9676H10.0184ZM10.0184 18.5522C9.89412 18.5522 9.77489 18.5028 9.68698 18.4149C9.59907 18.327 9.54969 18.2078 9.54969 18.0834C9.54969 17.9591 9.59907 17.8399 9.68698 17.752C9.77489 17.6641 9.89412 17.6147 10.0184 17.6147H20.2461C20.3704 17.6147 20.4896 17.6641 20.5775 17.752C20.6655 17.8399 20.7148 17.9591 20.7148 18.0834C20.7148 18.2078 20.6655 18.327 20.5775 18.4149C20.4896 18.5028 20.3704 18.5522 20.2461 18.5522H10.0184ZM4.75781 16.0865H7.81422C7.93854 16.0865 8.05777 16.1359 8.14568 16.2238C8.23358 16.3117 8.28297 16.4309 8.28297 16.5552V19.6116C8.28297 19.736 8.23358 19.8552 8.14568 19.9431C8.05777 20.031 7.93854 20.0804 7.81422 20.0804H4.75781C4.63349 20.0804 4.51426 20.031 4.42636 19.9431C4.33845 19.8552 4.28906 19.736 4.28906 19.6116V16.5552C4.28906 16.4309 4.33845 16.3117 4.42636 16.2238C4.51426 16.1359 4.63349 16.0865 4.75781 16.0865ZM4.75781 8.44586H7.81422C7.93854 8.44586 8.05777 8.49524 8.14568 8.58315C8.23358 8.67106 8.28297 8.79029 8.28297 8.91461V11.971C8.28297 12.0953 8.23358 12.2146 8.14568 12.3025C8.05777 12.3904 7.93854 12.4398 7.81422 12.4398H4.75781C4.63349 12.4398 4.51426 12.3904 4.42636 12.3025C4.33845 12.2146 4.28906 12.0953 4.28906 11.971V8.91406C4.28906 8.78974 4.33845 8.67051 4.42636 8.58261C4.51426 8.4947 4.63349 8.44531 4.75781 8.44531V8.44586ZM7.34547 9.38336H5.22656V11.5022H7.34562V9.38281L7.34547 9.38336ZM7.34547 17.024H5.22656V19.1429H7.34562V17.024H7.34547ZM2.35047 34.2656C2.05883 34.2648 1.77939 34.1485 1.57319 33.9423C1.367 33.736 1.2508 33.4566 1.25 33.1649V2.35047C1.25087 2.05887 1.36709 1.77947 1.57328 1.57328C1.77947 1.36709 2.05887 1.25087 2.35047 1.25H18.8672V5.49219C18.8681 5.9081 19.0338 6.30671 19.3279 6.60079C19.622 6.89488 20.0206 7.0605 20.4365 7.06141H24.6787V16.7348C24.1165 16.7425 23.5788 16.9662 23.1773 17.3597C22.7757 17.7532 22.5411 18.2862 22.522 18.8481L19.1548 21.4798C18.7156 21.386 18.2582 21.4296 17.8447 21.6048C17.4312 21.78 17.0816 22.0782 16.8434 22.4589C16.6053 22.8397 16.49 23.2845 16.5134 23.733C16.5368 24.1815 16.6977 24.6119 16.9742 24.9658C17.2507 25.3197 17.6294 25.5799 18.059 25.7111C18.4885 25.8423 18.9479 25.8381 19.375 25.6991C19.802 25.5601 20.176 25.2931 20.446 24.9342C20.716 24.5753 20.869 24.142 20.8842 23.6932L24.2514 21.0616C24.3919 21.0915 24.535 21.1074 24.6787 21.1092V23.668H21.631V29.7623H15.6504V34.2656H2.35047Z" fill="white"/>
</svg>
