<svg width="40" height="40" viewBox="0 0 40 40" fill="none" xmlns="http://www.w3.org/2000/svg">
<path fill-rule="evenodd" clip-rule="evenodd" d="M38.9986 19.2598C38.9986 21.866 38.4554 24.3452 37.4775 26.5913L32.7183 23.8436V13.7773H34.1015C34.2697 13.7773 34.4138 13.6838 34.4823 13.53C34.5508 13.3763 34.524 13.2066 34.4114 13.0816L31.1563 9.46399C31.0744 9.37297 30.969 9.32594 30.8465 9.32594C30.724 9.32594 30.6186 9.3729 30.5366 9.46399L27.2816 13.0816C27.169 13.2067 27.1422 13.3763 27.2108 13.53C27.2792 13.6838 27.4233 13.7773 27.5915 13.7772H28.9747V21.6821L22.6944 18.0562V0.98938C31.8686 2.02477 38.9986 9.80891 38.9986 19.2598ZM18.8204 20.293L35.3175 29.8177C32.1377 35.3132 26.196 39.0107 19.3903 39.0107C13.0509 39.0107 7.461 35.8027 4.15482 30.9217L13.0014 25.8141L13.6929 27.012C13.7771 27.1577 13.9301 27.2357 14.0975 27.2181C14.2649 27.2006 14.3984 27.0925 14.4504 26.9325L15.9559 22.3048C15.9938 22.1883 15.9817 22.0734 15.9205 21.9674C15.8594 21.8613 15.7659 21.7934 15.6461 21.7681L10.8856 20.7579C10.7209 20.723 10.5607 20.7845 10.4618 20.9207C10.3629 21.0569 10.3539 21.2284 10.438 21.3741L11.1296 22.572L2.38217 27.6222C1.49295 25.4644 1.00146 23.1007 1.00146 20.622C1.00139 10.6569 8.92826 2.54407 18.8203 2.24282V20.293H18.8204ZM16.4645 16.4663C16.4645 16.1639 16.2197 15.9195 15.9177 15.9195H14.6861V8.39102H12.7487V15.9194H11.6099V10.444H9.67217V15.9194H8.53373V12.4717H6.596V15.9194H5.36443C5.0624 15.9194 4.81764 16.1638 4.81764 16.4663C4.81764 16.7687 5.0624 17.0131 5.36443 17.0131H15.9177C16.2197 17.0131 16.4645 16.7678 16.4645 16.4663ZM23.0059 33.9616C23.0059 33.1849 22.3763 32.5553 21.5997 32.5553C20.823 32.5553 20.1934 33.1849 20.1934 33.9616C20.1934 34.7382 20.823 35.3678 21.5997 35.3678C22.3763 35.3678 23.0059 34.7382 23.0059 33.9616ZM22.1338 28.4512L16.3169 34.2681C16.1034 34.4816 16.1034 34.8278 16.3169 35.0413C16.5304 35.2548 16.8767 35.2548 17.0902 35.0413L22.9071 29.2245C23.1206 29.0109 23.1206 28.6647 22.9071 28.4512C22.6936 28.2377 22.3473 28.2377 22.1338 28.4512ZM17.6244 28.1121C16.8408 28.1121 16.2055 28.7473 16.2055 29.5309C16.2055 30.3145 16.8408 30.9498 17.6244 30.9498C18.4079 30.9498 19.0432 30.3145 19.0432 29.5309C19.0432 28.7473 18.4079 28.1121 17.6244 28.1121Z" fill="white"/>
</svg>
