<svg width="175" height="86" viewBox="0 0 175 86" fill="none" xmlns="http://www.w3.org/2000/svg">
<g clip-path="url(#clip0_138_2187)">
<path d="M7.06258 20.2734C9.27915 20.2734 11.3871 20.2734 13.6036 20.2734C13.6254 20.5112 13.6905 20.7489 13.6905 20.9867C13.7123 29.2646 13.7123 37.5642 13.734 45.8422C13.734 46.5986 13.734 47.3767 13.8861 48.09C14.3208 50.1433 16.0375 51.6994 18.1671 51.7643C21.9918 51.8939 25.8382 51.8939 29.6846 51.9156C36.3778 51.9372 43.0926 51.9156 49.7858 51.9156C50.0031 51.9156 50.1987 51.9156 50.5029 51.9156C50.5247 51.5481 50.5898 51.2455 50.5898 50.9213C50.5898 40.6549 50.5898 30.3885 50.5681 20.1221C50.5681 16.6424 48.6341 14.7404 45.1136 14.7404C35.8345 14.7404 26.5771 14.7404 17.2979 14.7404C17.0589 14.7404 16.7981 14.7404 16.4939 14.7404C16.4939 12.4277 16.4939 10.2232 16.4939 7.93214C16.8198 7.91053 17.1458 7.8673 17.45 7.8673C26.8378 7.8673 36.2039 7.84569 45.5917 7.88892C48.3515 7.91053 50.9375 8.68862 53.1324 10.4825C55.7836 12.6439 57.1961 15.4752 57.2178 18.8469C57.283 32.0312 57.2613 45.2154 57.2613 58.3996C57.2613 58.5077 57.2395 58.6157 57.1961 58.7886C56.9353 58.8103 56.6528 58.8751 56.392 58.8751C43.8315 58.8751 31.2492 58.7886 18.6887 58.9183C12.843 58.9832 7.06258 54.7037 7.01912 47.5929C6.97566 38.7313 6.99739 29.8698 6.99739 21.0083C6.99739 20.8354 7.04085 20.6193 7.06258 20.2734Z" fill="#09265E"/>
<path d="M114.892 25.331C116.783 27.4923 118.608 29.5888 120.499 31.7286C121.759 29.913 122.52 28.0111 122.889 25.9578C123.019 25.2445 123.237 25.0068 123.997 25.0284C125.736 25.0932 127.453 25.05 129.495 25.05C128.8 27.1249 128.278 29.1566 127.453 31.0802C126.627 32.9822 125.475 34.7328 124.432 36.6348C126.409 38.9042 128.452 41.2601 130.69 43.8105C129.191 43.8105 127.909 43.6808 126.648 43.8321C124.193 44.1563 122.302 43.4647 121.042 41.2601C120.868 40.9575 120.564 40.7414 120.368 40.5036C118.912 41.3466 117.608 42.3408 116.131 42.946C111.48 44.8263 106.851 44.8263 102.592 41.9517C97.7462 38.6665 97.1377 32.2689 101.245 28.0975C102.657 26.6494 104.439 25.5471 106.113 24.2287C105.765 23.7964 105.309 23.1913 104.852 22.6293C102.505 19.8196 101.919 16.6856 103.418 13.3787C105.004 9.87736 108.068 8.38603 111.763 8.10505C114.718 7.88892 117.565 8.3428 119.89 10.3961C122.65 12.8384 123.019 16.8369 120.89 20.2302C119.608 22.2835 117.652 23.6019 115.674 24.8555C115.457 24.9852 115.283 25.0932 114.892 25.331ZM109.894 28.7243C108.872 29.4159 107.873 30.0211 106.917 30.7127C105.439 31.7718 104.787 33.2631 105.135 35.0354C105.504 36.8294 106.743 37.8884 108.481 38.3207C111.502 39.0772 114.044 37.9965 116.391 36.1593C114.218 33.6738 112.089 31.2315 109.894 28.7243ZM112.436 13.2491C109.59 13.2274 107.873 15.9291 109.264 18.4147C109.829 19.4305 110.676 20.3167 111.458 21.2028C111.611 21.3757 112.11 21.5054 112.284 21.3973C113.74 20.5112 115.109 19.517 115.718 17.8311C116.565 15.4536 114.979 13.2491 112.436 13.2491Z" fill="#09265E"/>
<path d="M84.3599 8.36441C86.5764 8.36441 88.7061 8.36441 90.9226 8.36441C90.9226 20.187 90.9226 31.9663 90.9226 43.7889C88.7495 43.7889 86.5982 43.7889 84.3599 43.7889C84.3599 32.0096 84.3599 20.2302 84.3599 8.36441Z" fill="#09265E"/>
<path d="M142.816 43.7673C140.622 43.7673 138.47 43.7673 136.21 43.7673C136.21 31.9879 136.21 20.2086 136.21 8.38603C138.405 8.38603 140.578 8.38603 142.816 8.38603C142.816 20.1654 142.816 31.9447 142.816 43.7673Z" fill="#09265E"/>
<path d="M43.1361 46.0799C40.9195 46.0799 38.7899 46.0799 36.5951 46.0799C36.5951 37.4778 36.5951 28.8972 36.5951 20.2734C38.7682 20.2734 40.9195 20.2734 43.1361 20.2734C43.1361 28.8972 43.1361 37.4345 43.1361 46.0799Z" fill="#09265E"/>
<path d="M31.3144 46.0583C29.163 46.0583 27.0769 46.0583 24.9255 46.0583C24.9255 37.4561 24.9255 28.8972 24.9255 20.295C27.0551 20.295 29.1413 20.295 31.3144 20.295C31.3144 28.8324 31.3144 37.4129 31.3144 46.0583Z" fill="#09265E"/>
<path d="M68.4093 8.36441C69.1481 8.36441 69.7783 8.36441 70.4737 8.36441C70.4737 34.1061 70.4737 59.8045 70.4737 85.5894C69.8218 85.5894 69.1481 85.5894 68.4093 85.5894C68.4093 59.8909 68.4093 34.1709 68.4093 8.36441Z" fill="#09265E"/>
<path d="M126.257 51.9156C128.213 51.3536 129.365 51.9804 130.256 53.7095C131.473 56.0653 132.972 58.2483 134.493 60.7122C134.493 57.6215 134.493 54.7685 134.493 51.8507C135.319 51.8507 136.123 51.8507 136.992 51.8507C136.992 56.3895 136.992 60.9068 136.992 65.5753C136.297 65.5753 135.558 65.6401 134.885 65.532C134.58 65.4888 134.233 65.143 134.059 64.8404C132.385 62.1171 130.734 59.3722 129.061 56.6489C129.039 56.6057 128.952 56.5841 128.8 56.5192C128.8 59.5235 128.8 62.4845 128.8 65.5104C127.931 65.5104 127.148 65.5104 126.279 65.5104C126.257 60.9716 126.257 56.4328 126.257 51.9156Z" fill="#09265E"/>
<path d="M83.6645 51.7859C85.642 51.7859 87.5326 51.721 89.4015 51.8075C92.2048 51.9372 93.8563 54.2714 92.835 56.7137C92.5307 57.427 91.8571 57.9673 91.4007 58.4861C91.8571 58.9615 92.5959 59.437 92.9219 60.1071C93.2479 60.7987 93.3348 61.7281 93.2044 62.4845C92.9002 64.2568 91.3138 65.4672 89.2711 65.5537C87.4239 65.6401 85.5985 65.5753 83.6645 65.5753C83.6645 60.9716 83.6645 56.4328 83.6645 51.7859ZM86.2505 63.2626C87.2936 63.1978 88.2932 63.2194 89.2711 63.0681C90.1838 62.9168 90.5532 62.2036 90.5315 61.3174C90.5098 60.4745 90.0099 59.9342 89.2059 59.8477C88.228 59.7396 87.2284 59.8261 86.2505 59.8261C86.2505 60.9716 86.2505 62.0307 86.2505 63.2626ZM86.2939 54.3147C86.2939 55.3305 86.2939 56.3031 86.2939 57.3622C87.2284 57.3622 88.1628 57.4702 89.0538 57.3405C89.923 57.2109 90.3794 56.5841 90.3359 55.6547C90.2924 54.7469 89.7492 54.3795 88.9451 54.3363C88.0976 54.2714 87.2284 54.3147 86.2939 54.3147Z" fill="#09265E"/>
<path d="M164.287 72.1025C165.134 72.1025 165.938 72.0377 166.699 72.1242C167.003 72.1674 167.372 72.4916 167.546 72.7726C169.111 75.2797 170.632 77.8085 172.153 80.3157C172.24 80.467 172.349 80.5966 172.544 80.8344C172.544 77.8733 172.544 75.0636 172.544 72.1674C173.327 72.1674 174.131 72.1674 175 72.1674C175 76.663 175 81.0937 175 85.6542C174.283 85.6542 173.587 85.719 172.936 85.611C172.631 85.5677 172.305 85.2003 172.11 84.8977C170.393 82.1312 168.676 79.3647 166.851 76.382C166.851 79.5592 166.851 82.5202 166.851 85.5677C165.96 85.5677 165.156 85.5677 164.287 85.5677C164.287 81.1586 164.287 76.7062 164.287 72.1025Z" fill="#09265E"/>
<path d="M101.636 85.9135C97.5723 85.8703 95.0515 83.0822 95.095 78.7163C95.1385 74.7394 97.9418 71.8864 101.788 71.9296C105.504 71.9512 108.264 74.9771 108.242 78.9972C108.242 83.147 105.548 85.9568 101.636 85.9135ZM97.92 78.8892C97.92 79.2134 97.8983 79.5376 97.92 79.8618C98.0939 81.6773 99.1804 82.9741 100.875 83.4064C102.288 83.7738 103.94 83.1903 104.7 81.8286C105.156 81.0073 105.417 80.0131 105.482 79.0837C105.635 76.6846 104.352 74.8258 102.484 74.4368C99.8976 73.8965 97.8766 75.8633 97.92 78.8892Z" fill="#09265E"/>
<path d="M149.205 79.0405C149.227 76.7062 149.944 74.6313 151.9 73.2048C153.964 71.6703 156.268 71.5406 158.571 72.5996C160.983 73.7019 162.005 75.7984 162.222 78.3056C162.483 81.6125 160.918 84.4006 158.311 85.4813C153.769 87.34 149.205 84.098 149.205 79.0405ZM152.03 79.2782C152.03 79.3214 152.009 79.624 152.03 79.905C152.182 81.6773 153.269 83.0173 154.877 83.428C156.246 83.7738 157.876 83.1903 158.658 81.9151C159.853 79.9698 159.767 77.9166 158.658 75.9714C157.528 73.9613 154.616 73.7668 153.095 75.5175C152.204 76.5333 151.943 77.7437 152.03 79.2782Z" fill="#09265E"/>
<path d="M127.909 72.1674C128.908 72.1674 129.713 72.1674 130.669 72.1674C130.669 72.5997 130.669 72.9887 130.669 73.3561C130.625 76.1659 130.669 78.9756 130.517 81.7638C130.408 83.7738 129.061 85.2435 127.083 85.6974C122.715 86.6916 119.934 84.4438 120.064 80.4237C120.151 77.7653 120.086 75.1068 120.086 72.4267C120.086 72.3619 120.129 72.2971 120.173 72.1458C120.998 72.1458 121.824 72.1458 122.78 72.1458C122.78 74.3287 122.78 76.4901 122.78 78.6298C122.78 79.4511 122.78 80.294 122.867 81.1154C123.041 82.6067 124.128 83.5577 125.475 83.4712C126.996 83.3632 127.887 82.4338 127.887 80.856C127.931 77.9814 127.909 75.1284 127.909 72.1674Z" fill="#09265E"/>
<path d="M117.782 55.9141C117.022 55.9789 116.239 56.0653 115.5 56.1302C114.805 54.3147 113.914 53.7095 112.415 54.1634C111.937 54.3147 111.306 54.8334 111.263 55.2224C111.198 55.6979 111.589 56.4544 112.002 56.6921C112.849 57.1892 113.871 57.427 114.805 57.7944C116.391 58.4212 117.739 59.2641 117.913 61.1661C118.13 63.4788 116.869 65.1214 114.566 65.5753C112.675 65.9427 110.828 65.8995 109.242 64.581C108.351 63.8462 107.938 62.8952 107.873 61.62C108.699 61.4903 109.481 61.3606 110.263 61.231C111.35 63.1978 112.48 63.8462 113.936 63.2194C114.436 63.0033 115.022 62.3765 115.066 61.901C115.109 61.4255 114.609 60.669 114.153 60.4313C113.219 59.9125 112.132 59.6964 111.111 59.3074C109.112 58.5725 108.177 57.146 108.373 55.1792C108.546 53.4285 110.068 51.9588 112.002 51.7426C112.675 51.6562 113.371 51.6346 114.044 51.721C116.457 52.0236 117.587 53.2772 117.782 55.9141Z" fill="#09265E"/>
<path d="M95.5514 51.8075C96.5293 51.8075 97.355 51.8075 98.3112 51.8075C98.3112 52.1749 98.3112 52.5207 98.3112 52.8666C98.3112 55.525 98.2895 58.2051 98.3329 60.8635C98.3547 62.4413 99.2674 63.3275 100.723 63.3707C102.071 63.4139 103.135 62.5494 103.201 61.0581C103.309 58.7238 103.266 56.3895 103.288 54.0337C103.288 53.3204 103.288 52.6072 103.288 51.8291C104.2 51.8291 105.004 51.8291 105.939 51.8291C105.939 54.0121 105.939 56.1734 105.939 58.3131C105.939 59.437 106.047 60.5609 105.874 61.6632C105.439 64.6243 102.831 66.2453 99.6585 65.6833C96.9856 65.2078 95.5514 63.5436 95.5296 60.8419C95.5296 57.8809 95.5514 54.8982 95.5514 51.8075Z" fill="#09265E"/>
<path d="M139.991 51.8291C142.86 51.8291 145.707 51.8291 148.619 51.8291C148.619 52.6072 148.619 53.3853 148.619 54.293C146.663 54.293 144.707 54.293 142.686 54.293C142.686 55.3521 142.686 56.2815 142.686 57.3405C144.338 57.3405 145.967 57.3405 147.641 57.3405C147.641 58.1835 147.641 58.8967 147.641 59.6964C146.011 59.6964 144.403 59.6964 142.708 59.6964C142.708 60.8851 142.708 61.9658 142.708 63.1978C144.729 63.1978 146.728 63.1978 148.771 63.1978C148.771 64.0407 148.771 64.7323 148.771 65.5104C145.859 65.5104 142.947 65.5104 139.948 65.5104C139.991 60.9932 139.991 56.476 139.991 51.8291Z" fill="#09265E"/>
<path d="M171.719 55.9573C170.915 56.0437 170.154 56.1086 169.415 56.1734C168.676 54.2714 167.959 53.7095 166.503 54.0985C165.982 54.2498 165.264 54.7901 165.199 55.2656C165.112 55.7195 165.612 56.5192 166.069 56.7786C167.09 57.3405 168.285 57.6215 169.372 58.097C170.762 58.7238 171.784 59.6532 171.849 61.3174C171.936 63.5652 170.806 65.0782 168.568 65.5969C165.764 66.2453 163.157 65.2943 162.179 63.2194C161.961 62.7655 161.874 62.2252 161.679 61.62C162.613 61.4687 163.396 61.339 164.265 61.1877C164.678 62.7223 165.634 63.5652 167.264 63.3923C168.09 63.3059 168.828 63.0033 169.024 62.0739C169.22 61.0581 168.589 60.5393 167.764 60.2151C166.851 59.8693 165.916 59.61 165.004 59.2425C163.135 58.4861 162.07 56.9083 162.287 55.2656C162.548 53.3853 163.961 52.002 165.96 51.721C169.393 51.2239 171.653 52.8449 171.719 55.9573Z" fill="#09265E"/>
<path d="M150.292 61.62C151.139 61.4903 151.878 61.3823 152.704 61.2526C152.878 61.5984 153.03 62.0091 153.269 62.3549C153.986 63.4355 155.79 63.7597 156.855 63.0249C157.811 62.3765 157.702 60.9068 156.572 60.388C155.746 60.0206 154.877 59.8045 154.03 59.5019C151.509 58.5941 150.357 56.9947 150.77 54.9847C151.205 52.8017 153.204 51.4401 155.746 51.5697C158.55 51.6994 160.136 53.234 160.201 55.9357C159.441 56.0005 158.68 56.0654 157.898 56.1302C157.05 54.1634 156.355 53.6663 154.812 54.1417C154.312 54.293 153.725 54.8334 153.617 55.3089C153.53 55.7195 153.943 56.3679 154.312 56.7138C154.681 57.0596 155.268 57.1676 155.768 57.3622C156.333 57.5783 156.942 57.7296 157.507 57.9673C159.571 58.8535 160.462 60.2584 160.223 62.2468C160.027 63.9543 158.68 65.2511 156.659 65.6401C153.595 66.2669 150.944 64.9053 150.314 62.3981C150.314 62.182 150.335 61.9658 150.292 61.62Z" fill="#09265E"/>
<path d="M83.1864 81.6989C84.0122 81.5692 84.7945 81.4612 85.5333 81.3531C86.4026 83.3199 87.7716 84.0548 89.3363 83.2767C89.8361 83.0389 90.3142 82.3689 90.3794 81.8502C90.4228 81.4828 89.8578 80.8344 89.4232 80.6399C88.3149 80.1211 87.098 79.8618 85.968 79.3863C83.5558 78.3272 82.8387 75.8633 84.2729 73.7668C85.316 72.2538 87.8368 71.5406 90.0751 72.1458C91.9657 72.6645 92.9002 73.8748 93.0306 76.1226C92.6394 76.1443 92.27 76.1875 91.8788 76.1875C91.4876 76.2091 91.0965 76.1875 90.6836 76.1875C89.9882 74.5016 88.8799 73.8532 87.4674 74.48C86.9893 74.6745 86.4678 75.2797 86.4243 75.7336C86.3809 76.1226 86.8589 76.7927 87.2718 77.0088C88.228 77.4843 89.2928 77.7436 90.3142 78.1327C91.5746 78.6082 92.6394 79.3214 93.074 80.6831C93.639 82.4554 92.7915 84.379 91.053 85.3516C89.2059 86.389 86.1201 86.1297 84.4902 84.768C83.621 83.9683 83.0995 82.9957 83.1864 81.6989Z" fill="#09265E"/>
<path d="M136.232 74.6097C134.971 74.6097 133.907 74.6097 132.755 74.6097C132.755 73.7668 132.755 72.9887 132.755 72.1674C135.949 72.1674 139.122 72.1674 142.382 72.1674C142.382 72.9455 142.382 73.7019 142.382 74.5665C141.273 74.5665 140.165 74.5665 138.992 74.5665C138.992 78.284 138.992 81.8934 138.992 85.5893C138.057 85.5893 137.21 85.5893 136.254 85.5893C136.232 82.0015 136.232 78.3921 136.232 74.6097Z" fill="#09265E"/>
<path d="M110.198 85.5893C110.198 81.0937 110.198 76.663 110.198 72.1674C111.089 72.1674 111.937 72.1674 112.893 72.1674C112.893 75.8849 112.893 79.516 112.893 83.2983C114.827 83.2983 116.63 83.2983 118.521 83.2983C118.521 84.1196 118.521 84.8113 118.521 85.611C115.783 85.5893 113.045 85.5893 110.198 85.5893Z" fill="#09265E"/>
<path d="M6.99739 14.6972C6.99739 12.4277 6.99739 10.2448 6.99739 7.97537C9.14876 7.97537 11.3219 7.97537 13.6036 7.97537C13.6036 10.1799 13.6036 12.4061 13.6036 14.6972C11.4523 14.6972 9.30088 14.6972 6.99739 14.6972Z" fill="#09265E"/>
<path d="M6.80181 0C6.80181 2.16135 6.80181 4.19301 6.80181 6.28952C4.52005 6.28952 2.30349 6.28952 0 6.28952C0 4.21463 0 2.13973 0 0C2.21657 0 4.47659 0 6.80181 0Z" fill="#09265E"/>
<path d="M146.945 85.6326C146.076 85.6326 145.228 85.6326 144.316 85.6326C144.316 81.1586 144.316 76.7278 144.316 72.189C145.163 72.189 146.011 72.189 146.945 72.189C146.945 76.6414 146.945 81.1154 146.945 85.6326Z" fill="#09265E"/>
<path d="M122.976 65.5321C122.041 65.5321 121.216 65.5321 120.325 65.5321C120.325 60.95 120.325 56.4112 120.325 51.8291C121.237 51.8291 122.085 51.8291 122.976 51.8291C122.976 56.4112 122.976 60.9284 122.976 65.5321Z" fill="#09265E"/>
</g>
<defs>
<clipPath id="clip0_138_2187">
<rect width="175" height="86" fill="white"/>
</clipPath>
</defs>
</svg>
